<svg width="76" height="80" viewBox="0 0 76 80" fill="none" xmlns="http://www.w3.org/2000/svg">
<g opacity="0.15">
<path fill-rule="evenodd" clip-rule="evenodd" d="M5.81699 53.4418C5.75318 53.4588 5.66616 53.5044 5.64295 53.5613C5.60815 53.6637 5.60815 53.7833 5.58494 54.0167C5.44571 54.3183 5.78798 54.5972 5.92141 54.9387C5.93881 54.9786 6.08965 55.0241 6.11865 54.9957C6.40871 54.7509 6.68717 54.4948 6.95402 54.2272C6.99463 54.1874 6.99463 54.0679 6.96563 54.0167C6.68137 53.6353 6.3681 53.3052 5.81699 53.4418Z" fill="#00B307"/>
<path fill-rule="evenodd" clip-rule="evenodd" d="M4.64083 54.5118C4.56541 54.2557 4.35657 54.0792 4.0375 54.1191C3.96789 54.1418 3.88667 54.1475 3.83446 54.1931C3.81706 54.2101 3.84026 54.324 3.88087 54.3581C4.11872 54.5687 4.26955 54.8021 4.19994 55.1379C4.17093 55.2802 4.18833 55.4339 4.21154 55.5819C4.21734 55.6331 4.31016 55.7014 4.37397 55.7014C4.66403 55.7242 4.9889 55.3428 4.84387 55.1265C4.70464 54.9216 4.70464 54.7167 4.64083 54.5118Z" fill="#00B307"/>
<path fill-rule="evenodd" clip-rule="evenodd" d="M8.47403 56.8285C8.41602 56.7545 8.35221 56.6236 8.22458 56.6919C8.13176 56.7431 7.99254 56.9082 8.00414 56.9253C8.20138 57.1871 7.91712 57.3863 7.94032 57.6197C7.94032 57.6481 7.98093 57.6766 8.02154 57.7278C8.10276 57.6823 8.18977 57.631 8.27679 57.5855C8.70028 57.3521 8.74669 57.1757 8.47403 56.8285Z" fill="#00B307"/>
<path fill-rule="evenodd" clip-rule="evenodd" d="M3.42663 51C3.38602 50.9886 3.2874 51.0569 3.2816 51.0967C3.25839 51.2049 3.2758 51.3187 3.2758 51.4325C3.2816 51.4325 3.2874 51.4325 3.299 51.4325C3.299 51.5805 3.2874 51.7342 3.3048 51.8822C3.31641 51.979 3.38602 52.0131 3.44403 51.979C3.65288 51.848 3.7689 51.6716 3.7515 51.4211C3.73409 51.2618 3.57746 51.0341 3.42663 51Z" fill="#00B307"/>
<path fill-rule="evenodd" clip-rule="evenodd" d="M22.3098 66.3623C22.3156 66.3623 22.304 66.2997 22.2866 66.2769C22.043 65.9582 21.6659 65.9013 21.3468 65.7362C21.2772 65.8387 21.2134 65.8899 21.2018 65.9525C21.196 66.0151 21.2308 66.1289 21.2714 66.1346C21.3642 66.1574 21.4571 66.1858 21.5441 66.2086C21.5847 66.2598 21.6311 66.3054 21.7065 66.3509C21.7355 66.3168 21.7239 66.2826 21.7065 66.2542C21.8457 66.2997 21.9792 66.3509 22.1068 66.4249C22.1532 66.4534 22.246 66.3907 22.3098 66.3623Z" fill="#00B307"/>
<path fill-rule="evenodd" clip-rule="evenodd" d="M5.21342 56.1795C5.0858 56.1397 4.91756 56.2592 4.90596 56.4072C4.87695 56.6804 4.95237 56.8284 5.1264 56.8398C5.24823 56.8512 5.53829 56.6577 5.56149 56.5495C5.5847 56.4471 5.38746 56.2365 5.21342 56.1795Z" fill="#00B307"/>
<path fill-rule="evenodd" clip-rule="evenodd" d="M7.41837 55.3713C7.40677 55.3429 7.36616 55.3258 7.34295 55.303C7.31975 55.3315 7.27334 55.36 7.27334 55.3884C7.26754 55.6787 7.26174 55.9633 7.26754 56.2536C7.26754 56.2821 7.30235 56.3333 7.32555 56.339C7.34876 56.3447 7.38936 56.3105 7.41837 56.2877C7.71423 56.0544 7.72583 55.9975 7.54019 55.6616C7.49379 55.5706 7.46478 55.4681 7.41837 55.3713Z" fill="#00B307"/>
<path fill-rule="evenodd" clip-rule="evenodd" d="M6.04309 52.6563C6.03729 52.6278 5.99668 52.5709 5.97348 52.5766C5.79944 52.5937 5.6022 52.8726 5.6254 53.0718C5.63121 53.106 5.67182 53.1344 5.69502 53.1629C5.85165 53.1401 6.0663 52.8384 6.04309 52.6563Z" fill="#00B307"/>
<path fill-rule="evenodd" clip-rule="evenodd" d="M6.11246 57.4375C6.08345 57.5343 6.03704 57.631 6.15887 57.7107C6.20528 57.6823 6.3039 57.6424 6.2981 57.6254C6.26909 57.5343 6.22268 57.4489 6.18207 57.3635C6.15887 57.3863 6.11826 57.4091 6.11246 57.4375Z" fill="#00B307"/>
<path fill-rule="evenodd" clip-rule="evenodd" d="M24.6821 71.6671C24.7459 71.6671 24.8155 71.6159 24.8794 71.5874C24.8155 71.559 24.7517 71.5021 24.6879 71.5021C24.6705 71.5021 24.6531 71.5134 24.6299 71.5191C24.5197 71.4565 24.3747 71.3939 24.3398 71.4565C24.3979 71.4907 24.4211 71.5305 24.3921 71.576C24.4733 71.6102 24.5487 71.633 24.6067 71.6387C24.6241 71.65 24.6531 71.6614 24.6821 71.6671Z" fill="#00B307"/>
<path fill-rule="evenodd" clip-rule="evenodd" d="M11.5086 19.7061C11.468 19.7288 11.4564 19.7971 11.439 19.854C11.497 19.837 11.5608 19.8313 11.5898 19.7914C11.6362 19.7402 11.5782 19.6719 11.5086 19.7061Z" fill="#00B307"/>
<path fill-rule="evenodd" clip-rule="evenodd" d="M11.4398 19.8541C11.4281 19.8541 11.4165 19.8597 11.4106 19.8597C11.4106 19.8653 11.4106 19.8765 11.4106 19.8821C11.4165 19.8821 11.4281 19.8821 11.434 19.8765C11.434 19.8765 11.4398 19.8653 11.4398 19.8541Z" fill="#00B307"/>
<path fill-rule="evenodd" clip-rule="evenodd" d="M11.264 20.0248C11.2698 20.0533 11.351 20.0647 11.409 20.0875C11.409 20.0192 11.409 19.9565 11.409 19.8882C11.322 19.8939 11.235 19.911 11.264 20.0248Z" fill="#00B307"/>
<path fill-rule="evenodd" clip-rule="evenodd" d="M11.4106 20.0874C11.4106 20.0986 11.4106 20.1043 11.4106 20.1155C11.4163 20.1155 11.4219 20.1155 11.4219 20.1155C11.4219 20.1099 11.4275 20.1043 11.4275 20.0986C11.4219 20.0874 11.4163 20.0874 11.4106 20.0874Z" fill="#00B307"/>
<path fill-rule="evenodd" clip-rule="evenodd" d="M3.58291 26.3371C3.57711 26.3371 3.57131 26.4054 3.57711 26.4111C3.62352 26.4339 3.67573 26.451 3.72214 26.468C3.71054 26.394 3.70474 26.3144 3.58291 26.3371Z" fill="#00B307"/>
<path fill-rule="evenodd" clip-rule="evenodd" d="M3.72314 26.4681C3.72314 26.4793 3.72898 26.4905 3.72898 26.5074C3.74064 26.5074 3.75231 26.5074 3.76397 26.5074C3.76397 26.4961 3.75814 26.4905 3.75814 26.4793C3.74648 26.4793 3.73481 26.4737 3.72314 26.4681Z" fill="#00B307"/>
<path fill-rule="evenodd" clip-rule="evenodd" d="M2.69018 28.0618C2.71919 28.039 2.74239 28.0106 2.7714 27.9878C2.73079 27.8796 2.67277 27.8739 2.62056 27.9821C2.61476 27.9878 2.66697 28.0333 2.69018 28.0618Z" fill="#00B307"/>
<path fill-rule="evenodd" clip-rule="evenodd" d="M1.96518 29.075C1.93617 29.0807 1.91877 29.1603 1.90137 29.2173C1.96518 29.2173 2.03479 29.2173 2.09861 29.2173C2.0812 29.1433 2.0812 29.0522 1.96518 29.075Z" fill="#00B307"/>
<path fill-rule="evenodd" clip-rule="evenodd" d="M1.66439 29.4449C1.65273 29.4449 1.64106 29.4449 1.63523 29.4449C1.63523 29.4561 1.62939 29.4729 1.62939 29.4842C1.64106 29.4785 1.65273 29.4729 1.66439 29.4729C1.66439 29.4617 1.66439 29.4561 1.66439 29.4449Z" fill="#00B307"/>
<path fill-rule="evenodd" clip-rule="evenodd" d="M1.86613 29.2457C1.7443 29.2628 1.67469 29.3254 1.66309 29.4449C1.7327 29.4449 1.79651 29.4449 1.86613 29.4449C1.86613 29.3823 1.86613 29.314 1.86613 29.2457Z" fill="#00B307"/>
<path fill-rule="evenodd" clip-rule="evenodd" d="M1.62876 29.4847C1.58235 29.5018 1.53594 29.5189 1.48953 29.5416C1.47793 29.5473 1.48953 29.6099 1.48953 29.6099C1.61136 29.627 1.61716 29.5587 1.62876 29.4847Z" fill="#00B307"/>
<path fill-rule="evenodd" clip-rule="evenodd" d="M15.2674 64.7971C15.2906 64.7743 15.3312 64.7572 15.3312 64.7345C15.3312 64.7117 15.2964 64.6889 15.2732 64.6662C15.25 64.7003 15.2268 64.7345 15.2036 64.7629C15.2268 64.7743 15.2442 64.7857 15.2674 64.7971Z" fill="#00B307"/>
<path fill-rule="evenodd" clip-rule="evenodd" d="M18.9058 65.8671C18.9406 65.9525 18.9928 65.9696 19.0334 65.9127C19.045 65.8956 19.0392 65.8671 19.0392 65.8387C19.016 65.8273 18.987 65.7988 18.9754 65.8045C18.9464 65.8159 18.9 65.8557 18.9058 65.8671Z" fill="#00B307"/>
<path fill-rule="evenodd" clip-rule="evenodd" d="M23.0982 71.1207C23.0924 71.1435 23.1388 71.172 23.1562 71.1947C23.1852 71.172 23.2084 71.1492 23.2374 71.1264C23.2142 71.098 23.191 71.0752 23.1678 71.0467C23.1446 71.0752 23.104 71.0923 23.0982 71.1207Z" fill="#00B307"/>
<path fill-rule="evenodd" clip-rule="evenodd" d="M27.4213 71.5817C27.4039 71.5589 27.3749 71.5077 27.3633 71.5134C27.2589 71.5476 27.2531 71.6045 27.3517 71.6557C27.3633 71.6557 27.3981 71.6045 27.4213 71.5817Z" fill="#00B307"/>
<path fill-rule="evenodd" clip-rule="evenodd" d="M64.9544 13.5077C65.0704 13.3199 65.0066 13.058 64.7397 12.7507C64.5367 12.9044 64.9196 13.2572 64.9544 13.5077Z" fill="#00B307"/>
<path fill-rule="evenodd" clip-rule="evenodd" d="M38.53 4.07048C38.0717 4.03064 39.0927 3.95095 38.5416 3.85419C38.5532 4.01356 38.0775 3.86557 37.8803 3.89972C37.7875 4.07048 38.4256 4.22416 38.53 4.07048Z" fill="#00B307"/>
<path fill-rule="evenodd" clip-rule="evenodd" d="M23.2546 5.37393C22.9181 5.48208 22.8833 5.63006 22.9877 5.78944C23.3184 5.68129 23.359 5.539 23.2546 5.37393Z" fill="#00B307"/>
<path fill-rule="evenodd" clip-rule="evenodd" d="M43.2534 4.41205C43.0097 4.43482 42.8415 4.5145 42.5688 4.50312C42.5746 4.34375 40.9387 3.97947 40.6196 4.23561C41.4724 4.35514 42.2498 4.45189 43.0329 4.59419C43.4274 4.66249 43.8219 4.73079 44.2396 4.7991C44.6515 4.87878 45.075 4.96416 45.5332 5.05523C45.3534 4.7991 44.9183 4.71941 44.46 4.6568C44.0075 4.59988 43.526 4.5885 43.2534 4.41205Z" fill="#00B307"/>
<path fill-rule="evenodd" clip-rule="evenodd" d="M40.2759 3.76886C39.835 3.72902 39.8002 3.96238 39.3361 3.89977C39.5044 4.08191 38.9764 4.13883 39.3129 4.19006C39.4811 3.94531 40.0729 3.99084 40.2759 3.76886Z" fill="#00B307"/>
<path fill-rule="evenodd" clip-rule="evenodd" d="M1.93599 28.8871C2.06941 28.3578 2.23765 28.0276 2.35948 27.7374C2.26666 27.7146 2.12743 28.0276 2.0288 28.335C1.92438 28.6424 1.90118 28.9497 1.93599 28.8871Z" fill="#00B307"/>
<path fill-rule="evenodd" clip-rule="evenodd" d="M19.5368 13.0751C19.7399 12.9385 19.8269 13.0466 20.0531 12.8759C20.0241 12.7051 19.4034 12.9556 19.5368 13.0751Z" fill="#00B307"/>
<path fill-rule="evenodd" clip-rule="evenodd" d="M45.0569 1.04821L45.3411 1.11651C45.3817 1.03113 45.2541 0.985595 45.2831 0.905909C45.1033 0.871758 44.9582 0.860371 44.8828 0.911598C45.1613 0.962825 45.2077 0.996979 45.0569 1.04821Z" fill="#00B307"/>
<path fill-rule="evenodd" clip-rule="evenodd" d="M47.4639 6.55792L47.8699 6.69452C47.9802 6.50669 47.4929 6.40424 47.4639 6.55792Z" fill="#00B307"/>
<path fill-rule="evenodd" clip-rule="evenodd" d="M49.2737 4.98695C49.2157 4.91865 48.7574 4.69667 48.6704 4.77636C48.9083 4.8162 49.0939 5.07802 49.2737 4.98695Z" fill="#00B307"/>
<path fill-rule="evenodd" clip-rule="evenodd" d="M49.621 7.16123C49.3715 7.06447 49.1627 7.01893 49.0234 7.05308C49.2149 7.08154 49.621 7.35475 49.621 7.16123Z" fill="#00B307"/>
<path fill-rule="evenodd" clip-rule="evenodd" d="M50.6835 7.05314C50.788 6.99622 50.6081 6.88807 50.4399 6.82546C50.2658 6.77424 50.115 6.76855 50.2833 6.88238C50.4051 6.77424 50.4631 7.01899 50.6835 7.05314Z" fill="#00B307"/>
<path fill-rule="evenodd" clip-rule="evenodd" d="M50.8398 7.12713C51.1821 7.30927 51.2633 7.24666 51.4722 7.41742C51.5998 7.27512 50.8514 6.99621 50.8398 7.12713Z" fill="#00B307"/>
<path fill-rule="evenodd" clip-rule="evenodd" d="M54.9593 9.02811C54.7911 8.88581 54.7214 8.88581 54.6518 8.6809C54.617 8.73782 54.4952 8.64106 54.4546 8.67521C54.5068 8.76628 54.7795 9.07364 54.9593 9.02811Z" fill="#00B307"/>
<path fill-rule="evenodd" clip-rule="evenodd" d="M57.4243 5.6927C57.2154 5.60733 56.8093 5.23166 56.7861 5.43088C57.0298 5.56748 57.343 5.80654 57.4243 5.6927Z" fill="#00B307"/>
<path fill-rule="evenodd" clip-rule="evenodd" d="M57.2671 11.4927C57.5223 11.6862 57.7312 11.8798 57.8994 12.0676C57.9516 11.931 57.4527 11.5098 57.2671 11.4927Z" fill="#00B307"/>
<path fill-rule="evenodd" clip-rule="evenodd" d="M60.8989 11.5213C61.0788 11.6693 61.2412 11.7831 61.3688 11.8059C61.305 11.6237 61.0208 11.4928 60.8989 11.5213Z" fill="#00B307"/>
<path fill-rule="evenodd" clip-rule="evenodd" d="M61.8791 14.276C61.7051 14.0996 61.4092 13.9061 61.4962 13.7979C61.6296 13.8776 61.8385 14.1793 61.9197 14.111C61.618 13.5873 60.9103 13.4507 60.3882 13.0807C60.6492 13.4735 61.5368 14.111 61.8791 14.276Z" fill="#00B307"/>
<path fill-rule="evenodd" clip-rule="evenodd" d="M68.2617 16.8602C68.4242 17.0821 68.5982 16.974 68.575 16.8659L68.401 16.6382C68.2791 16.678 68.4184 16.8374 68.2617 16.8602Z" fill="#00B307"/>
<path fill-rule="evenodd" clip-rule="evenodd" d="M69.855 21.0551C69.4431 20.6795 69.5708 20.4347 69.1821 20.0647C69.1647 20.2355 69.6462 21.1974 69.855 21.0551Z" fill="#00B307"/>
<path fill-rule="evenodd" clip-rule="evenodd" d="M71.7951 24.823C71.8705 24.7832 71.9401 24.7775 72.0097 24.8287C71.7486 24.3677 71.679 23.9408 71.3832 23.5879C71.418 23.7416 71.0989 23.5367 71.0003 23.2578C70.9539 23.2976 70.8669 23.3033 70.9075 23.4058C71.2439 23.9522 71.6964 24.049 71.7951 24.823Z" fill="#00B307"/>
<path fill-rule="evenodd" clip-rule="evenodd" d="M72.2056 24.5385L72.3796 24.9711C72.571 25.0451 72.2926 24.345 72.2056 24.5385Z" fill="#00B307"/>
<path fill-rule="evenodd" clip-rule="evenodd" d="M72.0831 25.6996C72.1469 25.6541 72.2629 25.6598 72.2339 25.5402C71.9729 25.6256 72.2281 25.028 71.9438 25.0621C71.9961 25.2898 72.0135 25.3638 72.0831 25.6996Z" fill="#00B307"/>
<path fill-rule="evenodd" clip-rule="evenodd" d="M69.1662 60.3119C68.998 60.4086 69.0792 60.5395 68.8472 60.7843C68.911 60.9721 69.2649 60.7957 69.23 60.5794C69.1546 60.6648 69.0618 60.7274 68.9806 60.7615C68.9516 60.6704 69.2417 60.3916 69.1662 60.3119Z" fill="#00B307"/>
<path fill-rule="evenodd" clip-rule="evenodd" d="M54.5989 73.147C54.9585 72.9251 55.3298 72.76 55.2892 72.6291C55.0282 72.8966 54.5409 72.9706 54.3784 73.147C54.4886 73.0958 54.5873 73.056 54.5989 73.147Z" fill="#00B307"/>
<path fill-rule="evenodd" clip-rule="evenodd" d="M45.7 76.471C45.9147 76.397 46.0887 76.3174 46.1293 76.2092C45.8799 76.2775 45.5318 76.3173 45.7 76.471Z" fill="#00B307"/>
<path fill-rule="evenodd" clip-rule="evenodd" d="M37.2355 77.8827C36.5219 77.9794 36.1681 77.9453 35.5938 77.9794C36.0694 78.0819 36.725 78.1559 37.1485 77.9851C36.9744 77.968 37.1833 77.9282 37.2355 77.8827Z" fill="#00B307"/>
<path fill-rule="evenodd" clip-rule="evenodd" d="M36.2607 77.5638C36.4696 77.4614 36.8293 77.3988 37.0149 77.2622C36.574 77.3134 36.3478 77.2906 36.2607 77.5638Z" fill="#00B307"/>
<path fill-rule="evenodd" clip-rule="evenodd" d="M35.4963 77.5866C35.6935 77.4728 35.8907 77.7631 36.1692 77.6094C36.1808 77.4899 36.117 77.4102 35.972 77.3589C35.7109 77.4102 35.4615 77.4728 35.1134 77.4728C35.1946 77.6492 35.125 77.5923 35.2062 77.7631C35.0496 77.7403 34.9451 77.82 35.1076 77.8541C35.2294 77.7289 35.6761 77.7688 35.7805 77.6379C35.6703 77.6379 35.5137 77.6435 35.4963 77.5866Z" fill="#00B307"/>
<path fill-rule="evenodd" clip-rule="evenodd" d="M33.9419 78.059C34.4234 78.355 33.9651 78.1216 34.3306 78.0761C34.5568 78.0477 34.8817 78.1843 35.0151 78.0078C34.5626 78.0533 34.348 77.9566 33.9419 78.059Z" fill="#00B307"/>
<path fill-rule="evenodd" clip-rule="evenodd" d="M30.9253 77.7745C31.2502 77.8029 32.0855 77.894 31.9985 77.82C31.5692 77.7574 31.1747 77.7175 30.9253 77.7745Z" fill="#00B307"/>
<path fill-rule="evenodd" clip-rule="evenodd" d="M29.6308 77.1484C29.8686 77.1769 29.9382 77.1029 30.1123 77.2224C30.2341 77.0403 29.567 76.9435 29.6308 77.1484Z" fill="#00B307"/>
<path fill-rule="evenodd" clip-rule="evenodd" d="M28.7134 76.2206C29.0382 76.2263 29.1079 76.3174 29.2819 76.2662C29.2239 76.2149 28.6612 76.0385 28.7134 76.2206Z" fill="#00B307"/>
<path fill-rule="evenodd" clip-rule="evenodd" d="M27.6182 70.7963C27.8676 70.8589 28.1171 71.0354 28.3375 70.9727L28.3723 70.8304C28.0475 70.7508 27.885 70.8248 27.6182 70.7963Z" fill="#00B307"/>
<path fill-rule="evenodd" clip-rule="evenodd" d="M23.8306 71.5817C24.1264 71.6159 24.2599 71.7582 24.4223 71.7354C24.3643 71.7013 24.3411 71.6614 24.3701 71.6159C24.1206 71.5305 23.8422 71.3996 23.8306 71.5817Z" fill="#00B307"/>
<path fill-rule="evenodd" clip-rule="evenodd" d="M21.9795 72.4412C22.0665 72.4924 22.0897 72.5493 22.1071 72.6063C22.5132 72.6461 22.6408 72.6973 22.9425 72.703C22.5712 72.5323 22.5132 72.5664 22.2812 72.4127C22.345 72.629 21.9853 72.3217 21.9795 72.4412Z" fill="#00B307"/>
<path fill-rule="evenodd" clip-rule="evenodd" d="M20.6514 66.3737C20.895 66.4875 21.0226 66.607 21.1735 66.7266C21.3359 66.3566 21.7362 67.1364 21.9914 66.8518C21.8116 66.8062 21.4055 66.7152 21.539 66.533C21.8406 66.5103 22.2177 66.9827 22.3047 66.7323C21.829 66.5615 21.5215 66.442 21.2199 66.1403C21.4113 66.5046 20.9414 66.2086 21.1039 66.5217C20.9472 66.4704 20.6688 66.1801 20.6514 66.3737Z" fill="#00B307"/>
<path fill-rule="evenodd" clip-rule="evenodd" d="M12.1747 65.9581C11.9542 66.0834 12.2617 66.2996 12.4473 66.3281C12.2211 66.1744 12.4067 66.1118 12.1747 65.9581Z" fill="#00B307"/>
<path fill-rule="evenodd" clip-rule="evenodd" d="M9.15964 64.6832C9.40909 64.7572 8.83477 64.0798 8.66074 64.0172C8.65494 64.2278 8.56792 64.41 8.66074 64.6547C8.78836 64.6319 8.88698 64.5067 9.06102 64.649C9.08423 64.7629 9.64694 65.4402 9.73396 65.2751C9.57733 65.0361 9.37428 64.8881 9.15964 64.6832Z" fill="#00B307"/>
<path fill-rule="evenodd" clip-rule="evenodd" d="M23.2021 68.3714C23.2078 68.3714 23.2134 68.377 23.219 68.377C23.2134 68.3714 23.2078 68.3714 23.2078 68.3658L23.2021 68.3714Z" fill="#00B307"/>
<path fill-rule="evenodd" clip-rule="evenodd" d="M40.501 75.401L40.5068 75.4408C40.6576 75.4067 40.8084 75.3668 40.9535 75.3327C40.8026 75.3611 40.6518 75.3839 40.501 75.401Z" fill="#00B307"/>
<path fill-rule="evenodd" clip-rule="evenodd" d="M76 38.9105C75.9362 37.8746 75.8724 36.8557 75.8144 35.871C75.797 35.6263 75.7795 35.3815 75.7621 35.1425C75.7273 34.9034 75.6983 34.6644 75.6635 34.431C75.5939 33.9643 75.5301 33.5089 75.4663 33.0706C75.2284 32.7177 75.2691 31.3858 74.805 31.0842C74.7817 30.5548 74.7759 30.367 74.5439 29.8832C74.863 30.0198 74.4163 29.314 74.6541 29.3595C74.4395 28.9668 74.5265 28.409 74.3002 28.2724C74.4105 28.853 74.6425 29.1774 74.4627 29.4108C74.3757 28.8587 74.0856 28.3293 74.1958 27.9024C74.0276 27.4926 73.5461 26.7925 73.6099 26.3941C73.3836 26.4282 73.4707 25.8989 73.2502 25.7224C73.1574 25.7167 73.1864 25.8989 73.1168 25.7794C72.8905 25.472 72.9196 24.9654 72.7049 24.7264C72.7397 24.8345 72.7745 24.937 72.6817 24.9426C72.5425 24.6865 72.6585 24.6524 72.5193 24.3962C72.3568 24.4304 72.5947 24.806 72.5947 24.9825C72.8093 25.102 73.2096 26.1095 73.1458 26.2802C72.9544 26.007 72.8035 25.9558 72.8325 25.5972C72.6817 25.5858 72.8093 25.8078 72.7165 25.8477C72.8267 26.1379 72.9776 26.0867 73.0878 26.4055C72.9428 26.3941 72.8209 26.2233 72.6817 26.1607C72.7861 26.4795 72.9544 26.3258 73.0646 26.6161C73.0124 26.7299 72.8151 26.4111 72.8789 26.6844C72.9196 26.7128 72.9486 26.747 72.966 26.7868C72.937 26.7925 72.908 26.7982 72.8789 26.8096C72.8209 26.838 72.7571 26.8722 72.6991 26.9007C72.7107 26.8608 72.7339 26.8324 72.7745 26.8153C72.6237 26.5762 72.6527 26.525 72.6237 26.2745C72.5135 26.3201 72.6005 26.7128 72.6643 26.9177C72.5367 26.986 72.409 27.0486 72.2756 27.1112C72.264 27.1169 72.2408 27.0999 72.2176 27.0771C72.1944 26.9917 72.1654 26.912 72.1364 26.8267C72.1306 26.7299 72.1132 26.6331 72.0204 26.5591C71.9101 26.303 71.8231 26.0526 71.9392 25.859C71.6317 25.7111 71.2778 24.5442 71.3184 24.2312C71.2024 24.2539 71.069 24.1003 70.9529 23.9181C70.9529 23.8498 70.9529 23.7872 70.9645 23.7189C70.9762 23.6278 70.9007 23.5937 70.8021 23.6164C70.7325 23.4514 70.7035 23.3091 70.7441 23.2863C70.5991 23.1554 70.4598 23.0188 70.3148 22.8708C70.2684 22.757 70.222 22.6431 70.1698 22.5293C70.1814 22.5293 70.193 22.535 70.2046 22.5407C70.0248 22.1593 69.8391 21.8064 69.6419 21.4649C69.6361 21.4592 69.6361 21.4535 69.6303 21.4478C69.201 20.6681 68.7021 19.911 68.151 19.2109C67.9595 18.8922 67.7623 18.5564 67.5535 18.1864C67.4896 18.2376 67.4084 18.2035 67.3272 18.1238C67.2866 17.7595 66.9037 17.3896 66.5904 17.0594C66.515 16.809 66.3932 16.5699 66.2366 16.3366C66.2482 16.3195 66.2598 16.3024 66.283 16.2853C66.1728 16.143 66.1264 16.126 66.0915 16.143C66.0451 16.0804 65.9929 16.0235 65.9465 15.9666C65.7377 15.7161 65.5056 15.4714 65.291 15.2266C65.0647 14.9876 64.8501 14.7485 64.6818 14.4981C64.1597 13.6955 63.6376 12.8702 63.0459 12.0847C62.431 11.3277 61.7406 10.6162 60.8298 10.1666C60.65 10.0243 60.6384 10.2747 60.476 10.1609C59.9423 9.67138 59.2345 9.22741 58.521 8.75499C57.7784 8.3281 57.0359 7.86137 56.3281 7.46294C55.3419 6.8596 54.4833 6.09119 53.3753 5.68707C52.7256 5.47078 52.1397 5.3171 51.5885 5.27157C51.0374 5.23173 50.5269 5.27726 50.0454 5.42525C49.0824 5.02682 47.7191 5.46509 46.8548 4.81053C46.6401 4.83899 46.6169 5.05528 46.263 4.94144C46.0078 4.89021 46.0368 4.77638 45.915 4.69669C45.857 4.95852 46.002 4.93005 45.7989 5.11789C46.5473 5.1805 46.8722 5.31141 47.5509 5.24311C47.7191 5.3171 47.7597 5.41387 48.0324 5.47648C49.5407 5.49924 51.3391 5.63585 53.2361 6.26196C55.0577 6.88806 56.5718 8.18011 57.906 8.55008C58.1497 8.7436 57.8886 8.8916 58.0395 9.07374C58.7704 9.26726 59.0663 9.92183 59.7914 10.3544C60.2903 10.6788 60.9111 10.7244 61.4506 11.1399C61.9843 11.5782 62.3498 12.0107 62.7326 12.4661C63.0981 12.9328 63.4752 13.4223 64.0263 13.9858C64.0321 14.02 64.0379 14.0484 64.0437 14.0826C63.7769 13.8663 63.5912 13.6614 63.1677 13.3426C63.2257 13.2402 63.3882 13.4906 63.4578 13.4337C63.1503 13.1206 62.8777 12.9271 62.6456 12.7279C62.4136 12.5287 62.2221 12.3181 62.0539 11.9994C61.9263 12.1929 61.584 11.8058 61.4216 11.8969C61.7812 12.2327 62.2453 12.6539 62.2395 13.0068C61.8857 12.819 61.9437 12.5059 61.7348 12.4945C61.9553 12.9044 62.2163 13.1263 62.5238 13.3369C62.8313 13.5475 63.1387 13.7809 63.4868 14.168C63.4404 14.2192 63.3824 14.2135 63.3186 14.2021C63.4984 14.5152 63.8581 14.7258 64.1249 14.9136C64.1829 15.0047 64.2526 15.09 64.3164 15.1754C64.27 15.1469 64.2236 15.1242 64.1655 15.1128C64.2236 15.2323 64.299 15.3576 64.3454 15.4771C64.2932 15.4486 64.2468 15.4315 64.2178 15.4372C64.2816 15.4998 64.3396 15.5625 64.3918 15.6251C64.4034 15.6877 64.4092 15.7503 64.3918 15.8015C63.9277 15.5511 63.4984 15.4316 63.0807 15.3348C63.0169 15.2437 62.9705 15.1526 62.9357 15.073L62.8313 15.1754C62.8951 15.2266 62.9357 15.2722 62.9705 15.312C62.9067 15.3006 62.8487 15.2836 62.7849 15.2722C62.7559 15.2437 62.7268 15.2153 62.7036 15.1811C62.7559 15.1299 62.6572 14.8965 62.5818 15.0559C62.663 15.1356 62.6804 15.1925 62.6514 15.238C62.5064 15.1526 62.3382 15.1014 62.2221 14.9876C62.0945 14.8624 62.0481 14.6631 61.9437 14.5208C61.7986 14.3273 61.3636 14.3273 61.2649 14.5493C61.2301 14.6233 61.1953 14.6859 61.1547 14.7542C61.0213 14.6859 60.8879 14.6062 60.7544 14.5208C60.8067 14.2818 60.7718 14.037 60.6616 13.7923C60.6442 13.7581 60.5282 13.7524 60.4586 13.7524C60.4296 13.7524 60.3832 13.7809 60.3716 13.8094C60.3658 13.8207 60.36 13.8321 60.3542 13.8492C60.1511 13.7638 59.9423 13.65 59.8901 13.4109C59.832 13.4735 59.803 13.5362 59.8262 13.6158C59.9829 13.7183 60.1337 13.8037 60.3135 13.9801C60.3135 13.9972 60.3135 14.0143 60.3194 14.02C60.4064 14.1053 60.447 14.2021 60.4818 14.2989C60.0699 13.9118 59.687 13.5874 59.3041 13.3426C59.2171 13.2857 59.1301 13.2402 59.0489 13.189C59.0605 13.1776 59.0721 13.1662 59.0837 13.1548C59.0605 13.1263 59.0373 13.0979 59.0141 13.0694C58.9909 13.0922 58.9677 13.1093 58.9503 13.132C58.6776 12.9784 58.4166 12.8588 58.1613 12.7564C58.0685 12.6653 57.9815 12.5742 57.9118 12.4945C57.819 12.4262 57.7146 12.3693 57.6102 12.3067C56.0787 10.935 54.0715 9.60877 51.8728 8.63546C49.4711 7.54832 46.8896 6.88806 44.7315 6.66038C44.2384 6.43271 43.7743 6.26195 43.2638 6.1595C42.7533 6.05135 42.208 5.97167 41.5583 5.97167C40.8911 5.3854 39.5801 5.30572 38.3038 5.36833C37.9847 5.3854 37.6657 5.40248 37.3582 5.41955C37.0507 5.44232 36.7491 5.47078 36.4706 5.48216C35.9079 5.49924 35.4206 5.48217 35.0609 5.36264C34.4518 6.10827 32.3982 5.92614 31.6788 5.67569C31.5918 5.94321 31.2901 6.06274 30.9363 6.10827C30.5824 6.1595 30.1705 6.1538 29.8456 6.13104C29.8224 6.02858 30.3213 5.8066 29.7992 5.92044C29.5498 5.9489 29.573 6.06274 29.457 6.13673C29.2017 6.0229 28.8826 5.97167 28.726 5.77814C28.2561 5.84075 28.2271 6.02859 27.7572 6.0912C27.8442 5.92044 27.8906 5.7383 28.1633 5.61877C28.813 5.36264 28.9581 5.56185 29.3351 5.57324C29.2829 5.39679 29.0451 5.39679 29.399 5.26588C29.66 5.67569 30.1879 4.99836 30.5882 5.33418C30.3561 5.3911 30.1763 5.4594 30.1125 5.57324C30.5882 5.40817 31.1683 5.2488 31.586 5.1122C31.4526 5.13496 31.2553 5.12358 31.4468 5.06097C29.1437 4.97559 26.9915 5.3854 24.9668 6.07981C22.9364 6.77991 21.0278 7.75891 19.1076 8.92574C18.806 8.89159 18.3709 9.09081 17.9474 9.25587C16.9322 10.0983 16.1548 10.6162 16.3288 11.4415C17.5703 10.5593 18.4985 9.74538 20.7088 8.65254C21.2483 8.58423 21.724 8.66392 22.0024 8.99405C20.3897 10.0414 18.3419 10.639 16.9554 11.8855C16.7581 12.0677 16.7349 12.21 16.5377 12.3636C15.3368 13.3028 14.6349 13.6557 13.7937 14.2761C12.1578 15.4885 10.7829 17.1733 9.45442 18.6816C9.16436 19.0174 8.61325 19.1654 8.57844 19.7232C8.97873 19.3362 9.39061 18.9264 9.73288 18.5165C10.0868 18.1124 10.4058 17.7311 10.6089 17.3896C11.0614 17.031 11.6705 16.5415 12.2506 15.995C12.8655 15.4828 13.4631 14.9136 13.991 14.4924C14.2926 14.3273 14.5769 14.1566 14.8495 13.9858C15.128 13.8207 15.3891 13.6557 15.6443 13.4849C16.149 13.132 16.6421 12.7905 17.1468 12.4319C18.1562 11.7148 19.2527 10.9805 20.7552 10.343C21.0858 10.6048 21.3933 10.3658 21.8922 10.1666C22.0546 10.565 22.4897 10.5536 23.0408 10.3544C23.2961 10.121 22.7276 10.1723 22.9944 9.97874C23.3599 9.95598 23.708 9.95597 23.882 10.2235C23.5919 10.343 23.2845 10.5195 23.0988 10.491C23.3425 10.7585 23.9748 10.4341 24.1431 10.8211C23.6384 11.0887 23.1685 11.396 22.716 11.6977C22.2751 12.0221 21.8458 12.3409 21.4281 12.6653C20.5927 13.3256 19.7748 13.9574 18.8176 14.4924C18.4637 14.4981 18.1678 14.3501 17.7849 14.4241C17.7791 14.8054 18.5449 14.4696 18.8118 14.6745C18.6145 14.9591 18.3071 15.238 18.0286 15.5283C17.9474 15.6194 17.8662 15.7105 17.7849 15.7958C17.7675 15.8015 17.7501 15.8072 17.7269 15.8129C17.3673 15.8983 16.9496 16.0178 16.7871 16.3878C16.7581 16.4504 16.7233 16.5073 16.6943 16.5642C16.4217 16.7691 16.1722 16.974 15.946 17.1789C15.9344 17.1846 15.9228 17.1903 15.9054 17.196C15.8822 17.2302 15.8531 17.2529 15.8299 17.2814C15.7893 17.3212 15.7371 17.3611 15.6965 17.4066C15.4065 17.6286 15.0352 17.64 14.6581 17.6343C14.5247 17.6343 14.4551 17.7083 14.4203 17.8278C14.397 17.8961 14.3622 17.9701 14.3158 18.0213C14.1998 18.1466 14.0954 18.3686 13.8749 18.1352C13.6719 18.1807 13.5675 18.3344 13.4979 18.4995C13.3702 18.8068 13.1962 19.0231 12.8191 19.0003C12.7495 18.9946 12.6567 19.0231 12.6103 19.0686C12.3492 19.3419 11.9663 19.5126 11.8445 19.8997C11.7691 20.1501 11.5603 20.0989 11.392 20.1273C11.363 20.1899 11.3398 20.2753 11.2992 20.2924C10.7249 20.4632 10.2956 20.8217 9.88951 21.2316C9.67487 21.4479 9.47763 21.6584 9.17017 21.778C8.75828 21.943 8.27098 22.091 8.3522 22.7114C8.3638 22.7911 8.22457 22.8936 8.14335 22.979C8.00412 23.1156 7.8649 23.2408 7.71407 23.366C7.63865 23.4286 7.56903 23.5766 7.44721 23.4343C7.36599 23.3375 7.15715 23.2806 7.31958 23.0871C7.36599 23.0302 7.4008 22.9562 7.4008 22.8822C7.4008 22.8139 7.35439 22.7456 7.33119 22.683C7.29638 22.7057 7.26737 22.7228 7.23256 22.7456C6.97731 22.9334 6.82068 23.2066 6.83808 23.4912C6.84969 23.6392 6.89029 23.7474 6.77427 23.8612C6.58283 24.0433 6.40879 24.2539 6.10133 24.2482C5.73005 24.2425 6.00271 24.4475 5.9737 24.5727C5.91569 24.8117 5.77646 25.1248 5.57342 25.2272C5.36458 25.3354 5.21955 25.4777 5.10933 25.6371C5.15574 25.4208 5.20795 25.2045 5.29496 24.9939C5.77066 23.7075 6.9193 22.3244 7.3892 21.0494C7.96352 20.8616 7.50522 20.6681 8.13755 20.2013C8.06214 20.0363 7.96932 19.7232 7.78368 19.8143C7.70246 19.7915 7.60964 19.8655 7.51682 19.9395C7.23837 20.6567 6.79167 21.0722 6.61184 21.7495C5.23695 23.1269 4.45379 24.7662 3.88527 26.5364C3.83306 26.5421 3.78665 26.5478 3.72864 26.5421C3.73444 26.6161 3.77505 26.673 3.82726 26.7071C3.81566 26.747 3.80405 26.7811 3.79245 26.821C3.74024 26.9917 3.69383 27.1625 3.64742 27.3332C3.5488 27.3958 3.45018 27.4528 3.33996 27.504C3.14272 27.5894 3.00929 27.7601 3.00349 28.0276C2.99189 28.7903 2.97448 28.796 2.27254 29.1945C2.21453 29.2286 2.15071 29.2457 2.0869 29.2628C2.0695 29.3994 1.99408 29.4791 1.86065 29.4961C1.87806 29.6783 2.16812 29.849 1.86065 30.0483C1.70402 30.1507 1.56479 30.2987 1.46617 30.4581C1.42556 30.5264 1.38495 30.589 1.33854 30.6516C1.33854 30.6231 1.33274 30.6004 1.32694 30.5776C1.31534 30.6231 1.29794 30.68 1.28053 30.7313C1.21672 30.8053 1.1413 30.8736 1.03108 30.9305C0.810636 31.0443 1.01948 31.2549 1.1065 31.4086C0.746823 31.8355 1.1123 32.4673 0.688811 32.8771C0.68301 33.1788 0.73522 33.4975 0.659804 33.7821C0.572786 34.1065 0.410353 34.3968 0.462563 34.7554C0.503172 35.0173 0.358142 35.1766 0.10289 35.2506C0.0564801 35.262 -0.00153267 35.4043 0.0216721 35.4384C0.184106 35.6832 0.0796851 35.9109 0.0158719 36.1442C0.311733 36.5028 0.242118 36.9354 0.224714 37.3452C0.207311 37.7493 0.334937 38.1819 0.0216721 38.5462C-0.0363399 38.6145 0.027474 38.7739 0.149299 38.8194C0.294329 38.8763 0.44516 38.9105 0.433558 39.1097C0.427757 39.2634 0.433558 39.4114 0.445161 39.565C0.485769 40.1912 0.358142 40.84 0.677208 41.4434C0.717817 41.5174 0.654003 41.6597 0.619196 41.7621C0.584389 41.8532 0.456763 41.9158 0.572787 42.041C0.752624 42.2288 0.706215 42.4679 0.688811 42.6899C0.654004 43.168 0.659805 43.3843 0.770028 43.5778C0.932461 43.8681 1.06009 44.1868 1.34435 44.4088C1.45457 44.4942 1.588 44.6422 1.5938 44.7674C1.6112 45.1146 1.68082 45.4334 1.84905 45.7293C1.77944 46.3213 2.0695 46.8108 2.33055 47.306C2.36536 47.3686 2.42337 47.4824 2.44657 47.4767C2.89327 47.3629 2.96288 47.8183 3.23554 47.9605C3.50819 48.1028 3.79245 48.2338 4.07671 48.3647C4.12892 48.4899 4.18113 48.6208 4.23334 48.7517C4.21594 48.7916 4.22754 48.8257 4.27395 48.8485C4.32036 48.9737 4.36677 49.1103 4.41318 49.2412C4.25075 49.4063 4.14052 49.56 4.31456 49.8503C4.5002 50.1576 4.56401 50.539 4.65683 50.8919C4.68584 51.0114 4.72064 51.1138 4.83087 51.148C4.9933 51.1992 5.09192 51.2334 4.9817 51.4383C4.90048 51.5977 4.94109 51.8424 4.83087 51.9676C4.55821 52.2693 4.91789 52.4343 4.94689 52.6677C4.95849 52.7872 5.15574 52.7759 5.23695 52.7133C5.4516 52.5482 5.62563 52.3433 5.83448 52.1782C6.03752 52.0188 5.92149 51.905 5.85768 51.7229C5.73005 51.3643 5.80547 50.9829 5.85768 50.6073C5.86348 50.5788 5.90409 50.556 5.92729 50.5276C5.9563 50.556 6.00271 50.5845 6.00271 50.613C6.02011 50.9146 6.32178 51.0285 6.4378 51.2561C6.49581 51.3643 6.21155 51.5407 6.4378 51.6033C6.78587 51.7001 6.9251 51.9335 7.03532 52.2294C7.16875 52.5766 7.29638 52.9239 7.45301 53.2597C7.62125 53.6296 7.81849 53.9939 8.00412 54.3582C8.05053 54.455 8.13755 54.5688 8.12595 54.6599C8.07374 55.0469 8.25938 55.3315 8.53783 55.5421C8.8337 55.7641 8.8337 56.043 8.82789 56.356C8.82209 56.5439 8.79309 56.7431 8.95552 56.8854C9.27459 57.1643 9.38481 57.5741 9.61106 57.9099C9.70968 58.0579 9.73288 57.8416 9.77349 57.7676C9.8025 57.7107 9.85471 57.6652 9.89532 57.6139C9.91852 57.6424 9.96493 57.6766 9.96493 57.705C9.95333 58.149 10.081 58.5873 9.8373 59.0255C9.66907 59.3272 9.77349 59.663 9.97073 59.9818C10.3014 60.5111 10.342 60.5908 10.8583 60.7615C11.2934 60.9038 11.3688 60.9835 11.3804 61.3763C11.392 61.7178 11.3514 62.065 11.6879 62.3041C11.7459 62.3439 11.8213 62.4236 11.8213 62.4862C11.8155 63.0155 12.2216 63.283 12.5465 63.5961C12.7901 63.8295 12.9874 64.1368 13.3586 64.2165C13.5269 64.5637 13.8285 64.8028 14.0606 65.0988C14.3158 65.4289 14.8321 65.4516 14.954 65.907C14.9714 65.981 15.0642 65.9582 15.1048 65.8615C15.1338 65.7932 15.128 65.7135 15.1628 65.6452C15.1744 65.6224 15.1918 65.5996 15.2034 65.5769C15.3833 65.7192 15.5863 65.8615 15.7835 65.9981C15.6443 65.8615 15.4819 65.6167 15.3136 65.4061C15.3194 65.389 15.331 65.3777 15.331 65.3606C15.3658 65.1784 15.2266 65.1215 15.0642 65.076C14.9656 65.0475 14.8379 64.9564 14.8031 64.8711C14.7799 64.8085 14.7451 64.7572 14.7161 64.7003C14.7335 64.7003 14.7567 64.706 14.7799 64.7117C14.7393 64.6605 14.7045 64.6377 14.6697 64.6149C14.4725 64.3133 14.1766 64.0913 13.9736 63.7953C13.8285 63.579 13.5791 63.3627 13.5791 63.1408C13.5733 62.8675 13.7763 62.5943 13.8865 62.3211C13.9271 62.2187 13.962 62.1162 14.0084 62.0138C14.02 61.9796 14.0548 61.9512 14.0838 61.9284C14.2114 61.843 14.1186 61.8885 14.1476 62.0138C14.2114 62.2984 14.368 62.3666 14.6291 62.361C14.8785 62.3553 14.8089 62.4748 14.7451 62.6342C14.6465 62.8903 14.9308 62.7651 15.0178 62.8448C15.1048 62.9188 15.1222 62.9928 15.012 63.0041C14.6407 63.0269 14.7451 63.2204 14.8321 63.4197C14.6407 63.5961 14.6349 63.8181 14.6929 64.0458C14.6987 64.0799 14.7277 64.1255 14.7567 64.1368C14.7799 64.1482 14.8263 64.1141 14.8495 64.0913C14.9308 64.0116 15.0526 63.9376 15.0758 63.8408C15.186 63.4083 15.4529 63.2432 15.8996 63.2432C16.0678 63.3286 16.236 63.3741 16.3695 63.3343C16.323 63.4367 16.2998 63.5335 16.3346 63.6416C16.3056 63.6245 16.2882 63.6132 16.2824 63.6075C16.3056 63.6359 16.3346 63.6587 16.3579 63.6872C16.3811 63.7384 16.4159 63.7839 16.4797 63.8352C16.5435 63.8864 16.5203 64.0002 16.4797 64.1027C16.4217 64.0628 16.3637 64.0173 16.294 63.9775C16.3811 63.7896 15.9924 63.3912 15.9692 63.6189C16.3637 63.6644 15.9576 63.8295 16.0388 63.9091C16.1722 63.9774 16.2824 64.1198 16.4043 64.2564C16.294 64.4897 16.2012 64.7231 16.12 64.9621C15.9924 65.3435 15.9982 65.7078 16.3811 65.9696C16.7407 66.2144 16.8336 66.5559 16.7639 66.96C16.7465 67.0681 16.7697 67.1877 16.7523 67.3015C16.7465 67.3527 16.7523 67.3983 16.7523 67.4438C16.6943 67.4324 16.6305 67.421 16.5609 67.3983C16.6305 67.4666 16.7001 67.5178 16.7697 67.5633C16.7755 67.5975 16.7871 67.6316 16.7987 67.6601C16.3404 67.4381 15.8706 67.0681 15.3949 66.6697C15.0236 66.351 14.6465 66.0208 14.2926 65.7135C13.9504 65.3947 13.6371 65.0874 13.3296 64.8711C13.4457 64.9735 12.9758 64.7402 12.8481 64.5125C12.8481 64.9052 13.5153 65.6053 13.6197 66.1461C13.8981 66.3965 14.0664 66.6071 14.1012 66.812C14.223 66.9031 14.3274 66.9657 14.4145 66.9828C14.2752 67.3812 16.004 68.4854 15.6617 68.5936C15.9692 68.7188 16.2476 68.7586 16.6653 69.0091C16.7581 68.9294 16.5841 68.8383 16.7175 68.7586C16.9322 68.8952 17.112 68.9749 17.2222 68.9464C16.7697 68.6505 16.5841 68.8212 16.1838 68.6049C16.3346 68.5025 16.1606 68.2976 15.975 68.2805C15.7661 68.3431 16.207 68.4797 16.1142 68.5537C15.9982 68.474 15.9924 68.6163 15.8415 68.4797C16.1374 68.3659 15.2266 68.0699 15.157 67.7569C15.2208 67.6885 15.2962 67.6601 15.4123 67.6999C15.8938 68.1268 15.7429 67.8138 16.0214 67.8934C16.2592 68.0301 16.1374 68.1382 16.2998 68.2691C16.4681 68.104 16.8684 68.3431 17.1526 68.5651C17.5529 68.7017 17.9706 68.7302 18.3593 68.7757C18.3825 68.7928 18.3999 68.8098 18.4231 68.8269C18.6435 69.0204 18.9046 69.1741 19.154 69.3392C19.212 69.379 19.2933 69.3449 19.2991 69.2481C19.3107 69.0261 19.4093 68.77 19.2468 68.5936C19.0264 68.3545 18.8582 68.0187 18.4289 68.0528C18.3361 68.0585 18.1968 67.9902 18.1388 67.9105C18.0576 67.7967 17.9822 67.6772 17.901 67.5633C17.9184 67.5519 17.9474 67.5406 17.9822 67.5349C17.9184 67.5064 17.872 67.4779 17.8256 67.4495C17.7037 67.2673 17.5877 67.0795 17.4659 66.8917C17.5819 66.5843 17.6863 66.2713 17.8198 65.9696C17.872 65.8615 17.901 65.7647 17.8662 65.6566C17.8546 65.6281 17.8024 65.5826 17.8024 65.5826C17.3789 65.9184 17.3092 65.4346 17.112 65.2866C16.9612 65.1784 16.9554 64.9963 16.967 64.8255C17.2164 64.7402 17.3151 65.2126 17.5993 65.0988C17.6225 65.1215 17.6515 65.15 17.6805 65.1727C17.8372 65.3947 18.1098 65.6679 18.4173 65.8785C18.7363 66.1062 19.038 66.3054 19.183 66.4307C19.1598 66.3794 19.3281 66.3111 19.3861 66.3339C19.5427 66.5729 20.3723 66.6811 19.9836 66.738C20.2331 66.9088 20.3491 66.8291 20.4941 66.8063C19.8792 66.573 19.3977 66.1802 18.951 66.129C18.8756 65.8558 18.4869 65.685 18.1968 65.5029C18.0866 65.4289 17.988 65.3663 17.9126 65.298C17.959 65.2923 18.017 65.2638 18.0634 65.2467C18.0808 65.241 18.0924 65.1841 18.0808 65.1671C18.046 65.0988 17.9822 65.0475 17.959 64.9792C17.9242 64.8768 17.8894 64.7515 18.017 64.6832C18.1156 64.632 18.2258 64.6093 18.3361 64.6889C18.4231 64.7516 18.5159 64.7971 18.6087 64.8483C18.6203 64.9622 18.6029 65.0931 18.6609 65.1727C18.7131 65.2467 18.8466 65.2809 18.951 65.298C19.1076 65.3207 19.2643 65.3036 19.4151 65.3492C19.3397 65.3776 19.2585 65.3663 19.4441 65.4687C19.5137 65.4687 19.5949 65.4801 19.6761 65.5029C19.7051 65.52 19.7342 65.5256 19.7632 65.5313C20.1982 65.6793 20.7146 66.0607 21.0452 66.1176C20.8422 65.9867 20.6449 65.8671 20.4535 65.7419C20.5695 65.7476 20.6855 65.7476 20.8074 65.7419C20.8364 65.7419 20.8712 65.7021 20.8828 65.6736C20.8886 65.6622 20.8654 65.6167 20.848 65.6053C20.6855 65.4972 20.5173 65.5029 20.3549 65.6053C20.3375 65.6167 20.3317 65.6395 20.3201 65.6622C20.2099 65.5939 20.1054 65.52 20.001 65.4517C20.1054 65.3777 20.204 65.2923 20.3317 65.315C20.4651 65.3378 20.6043 65.3321 20.7436 65.3207C20.8654 65.4403 20.9988 65.5541 21.1496 65.6224C21.1903 65.4972 21.4223 65.7362 21.4397 65.5655C21.4571 65.5256 21.4455 65.4858 21.4223 65.446C21.6544 65.5655 21.8806 65.5484 22.1184 65.5427C22.3679 65.537 22.5245 65.5769 22.6173 65.8671C22.6638 66.0151 22.774 66.129 22.9248 66.1916C22.9016 66.277 22.9886 66.3794 23.0988 66.4819C22.8494 66.4705 22.7566 66.7039 22.4491 66.6071C22.5767 66.6754 22.6696 66.7437 22.687 66.8234C22.5883 66.8974 22.3737 66.7949 22.3041 66.9088C22.5883 66.9771 22.9016 67.1649 23.1859 67.421C23.2845 67.182 23.6964 67.4666 23.8124 67.5463C23.6732 67.6316 23.4585 67.5633 23.2787 67.4097C23.3251 67.6715 22.9712 67.3414 22.9654 67.5349C23.2323 67.7227 24.2185 67.5576 24.4389 68.0699C23.8066 67.7568 23.5977 67.9162 23.1743 67.8422C22.9596 68.0528 23.0292 68.2236 23.2033 68.3773L23.2555 68.252C23.4179 68.3033 23.4353 68.3716 23.5281 68.4285C23.4643 68.4456 23.4063 68.4683 23.4933 68.5196C23.4295 68.622 23.3947 68.4171 23.2207 68.3887C23.4411 68.5765 23.8066 68.7416 24.0154 68.9408C24.6884 69.1115 25.576 69.7149 26.1387 69.7319C25.9182 69.5953 25.3671 69.4929 25.3787 69.214C25.6166 69.0432 25.7906 69.4815 25.9414 69.305C25.6282 69.1286 25.4483 69.1855 25.3845 68.9578C25.4831 68.992 25.4831 68.9009 25.5644 68.918C25.8486 69.0774 26.1503 69.3278 26.0633 69.4473C26.0865 69.2937 26.2431 69.6409 26.3069 69.4815C26.2083 69.4018 26.2431 69.2937 26.2257 69.1969C25.8544 69.0831 25.634 68.9294 25.6282 68.7358C26.1155 68.696 26.4403 68.9351 26.8058 68.9692C26.8754 69.1058 26.9624 69.231 27.0727 69.3392C27.1713 69.436 27.2757 69.4132 27.3859 69.3733C27.4788 69.3392 27.531 69.1969 27.6702 69.2823C27.8616 69.3961 28.0937 69.4701 28.2503 69.6181C28.6042 69.971 29.0161 70.21 29.486 70.3865C29.4918 70.3865 29.4918 70.3922 29.4918 70.3979C29.4802 70.415 29.4628 70.432 29.457 70.4548C29.0161 70.3865 28.7028 70.4946 28.2619 70.267C28.2793 70.3068 28.3141 70.3239 28.3431 70.3523C28.0647 70.2954 27.7804 70.2442 27.4904 70.193C27.2931 70.4889 27.821 70.1873 27.7978 70.432C27.6122 70.4776 27.0031 70.3466 26.9915 70.1417C27.1307 70.2044 27.2757 70.267 27.4091 70.3068C27.3685 70.1987 27.1829 70.1303 27.0205 70.062V70.0564C27.0147 70.0564 27.0031 70.0507 26.9973 70.0507C26.8986 70.0051 26.8058 69.9596 26.7652 69.8913C26.7072 69.9198 26.3185 69.8628 26.4925 69.9539C26.4984 69.9539 26.5158 69.9596 26.5216 69.9653C25.9414 69.8401 25.4019 69.6465 24.8856 69.4986C24.2301 69.2823 23.6036 69.1115 22.9538 69.1115C22.8262 68.844 22.5709 68.7415 22.3041 68.7188C21.6137 68.5196 21.08 68.1098 20.7204 67.7625C20.4999 68.0187 20.175 67.33 19.8502 67.3186C19.856 67.2446 19.8038 67.1991 19.9198 67.1934C19.2294 67.1478 19.183 66.4079 18.4579 66.1688C18.7363 66.3737 18.0576 66.2371 18.6087 66.5388C18.7595 66.499 18.5275 66.277 18.7131 66.3737C18.5391 66.6128 19.1482 66.9031 19.2352 67.2446C19.7632 67.2389 20.03 67.6999 20.5869 68.0187C20.5985 68.1268 20.5985 68.4569 20.848 68.4114C20.5347 68.2919 20.9814 68.2862 21.0336 68.2293C21.3353 68.3659 21.5789 68.5651 21.8284 68.7415C21.6543 68.7757 21.5093 68.8269 21.4281 68.8782C21.4977 68.9066 21.5615 68.9294 21.6311 68.9578C21.6253 69.0091 21.6369 69.0375 21.5383 69.1001C21.8632 69.3164 21.9444 69.1912 22.13 69.214C21.8922 69.4587 22.9538 69.7262 23.1569 69.9994C23.1801 69.897 23.2729 69.8913 23.4469 69.9539C23.3889 70.0051 23.3193 69.9938 23.3947 70.0905C24.9204 70.6085 26.3301 71.0069 27.7282 71.4167C28.2445 71.3826 29.6484 71.5704 29.486 72.0371C31.1857 72.5665 33.0073 72.6746 34.9159 72.834C35.5598 72.612 36.3488 72.7259 36.9347 72.7771C36.8477 72.7657 37.1087 72.6575 37.2712 72.7145C37.8745 72.908 36.8593 73.1015 36.3546 73.0787C36.7955 73.0731 36.3662 73.3975 36.2792 73.5113C35.3162 73.6024 34.533 73.5626 33.686 73.6479C33.4598 73.6195 33.4366 73.4942 33.1755 73.4772C32.7985 73.6479 32.4214 73.295 31.9805 73.2836C31.7252 73.2723 31.5164 73.4601 31.2669 73.4259C30.9827 73.3918 30.7564 73.1584 30.5186 73.1243C30.3736 73.1015 30.1125 73.1527 29.9907 73.1413C30.0023 73.1413 30.0661 73.056 30.0893 73.0617C29.834 73.0218 29.6832 73.1357 29.4628 73.1129C29.4222 73.1072 29.4222 72.9592 29.4047 72.9535C29.1147 72.8055 28.6912 72.9649 28.3547 72.9023C28.1401 72.7088 28.6854 72.7543 28.3199 72.6462C28.2619 72.7998 27.908 72.686 27.7572 72.76C27.5774 72.4413 26.8 72.5494 26.9682 72.316C26.6724 72.2819 26.2605 72.2534 25.866 72.1623C25.4773 72.0713 25.0945 71.9688 24.8392 71.8721C24.932 71.9119 24.903 71.9745 24.8798 72.0371C24.2591 71.8208 24.056 71.7525 23.6906 71.7241C23.708 71.6785 23.7776 71.6956 23.8066 71.6615C23.3367 71.5021 22.8958 71.3826 22.5187 71.2175C22.1416 71.0525 21.811 70.8931 21.5441 70.7394C21.4397 70.7621 21.3527 70.8134 21.2251 70.8077C21.0742 70.6028 21.0046 70.6256 20.8074 70.6654C20.6855 70.5117 20.8364 70.3637 20.5695 70.341C20.7842 70.5914 20.1866 70.341 20.0068 70.2897C20.0474 70.2044 19.8154 70.1304 19.9314 70.0393C19.9604 69.9311 20.1866 70.1019 20.2331 70.0222C19.7109 69.7888 19.6471 69.9198 19.5021 70.1076C19.6587 70.267 19.9778 70.4206 20.1576 70.58C20.4245 70.4036 21.2135 70.95 21.3585 71.1378C21.2541 71.0923 21.2541 71.1833 21.1612 71.1492C21.1728 71.0923 21.2309 71.0297 21.138 70.9784C20.5463 71.0354 20.1112 70.6483 19.4963 70.3182C19.5949 70.58 19.2759 70.3751 19.183 70.5402C19.8212 70.8419 20.4709 71.1321 21.0452 71.411C20.8306 71.2061 21.3411 71.3883 21.4455 71.3826C21.5731 71.5192 21.9792 71.855 22.1184 71.8493C22.0256 71.7981 22.0604 71.7412 22.0894 71.6786C22.3389 72.0485 22.8958 72.1339 23.3541 72.373C22.832 72.1567 23.035 72.3559 22.6289 72.2648C22.977 72.4583 23.1627 72.5949 23.4933 72.5209L23.4469 72.6576C23.8704 72.7259 24.3693 72.9364 24.8972 73.1584C25.1641 73.2666 25.4309 73.3861 25.7036 73.4772C25.982 73.5569 26.2605 73.6138 26.5332 73.6422C26.5332 73.6992 26.4867 73.7732 26.5854 73.8073C27.5426 73.8585 28.8246 74.5131 29.3235 74.3993C29.3293 74.5928 28.871 74.57 28.6796 74.4106C28.6738 74.7522 29.2365 74.6212 29.4686 74.6155C29.457 74.6155 29.4686 74.7123 29.4512 74.7123C29.8166 74.718 30.0081 74.5245 30.391 74.5586C30.8783 74.5985 30.9827 74.8717 31.6266 74.8774C31.4642 74.6269 32.2879 74.9514 32.5374 74.8546C32.0559 74.7806 32.3344 74.7578 32.723 74.7977C33.1117 74.8261 33.6222 74.866 33.6106 75.0311C33.3148 75.0026 33.2626 75.1221 33.0595 75.1449C33.5584 75.1506 33.3206 75.2075 33.4076 75.4067C33.8137 75.3726 33.8543 75.5092 34.1327 75.5376C34.0979 75.384 33.7324 75.384 33.599 75.2701C33.7208 75.2758 33.7963 75.2587 33.8717 75.236C34.0805 75.3043 34.2081 75.5547 34.4112 75.3555C34.3996 75.4409 34.4286 75.5092 34.4982 75.5547C33.7615 75.5775 33.2567 75.6002 32.7636 75.5832C32.2763 75.5319 31.8006 75.4409 31.1277 75.253C30.71 75.2701 30.2923 75.1677 29.8747 75.0766C29.4512 74.9855 29.0277 74.9172 28.581 74.9343C28.5868 74.8432 28.2909 74.8318 28.3431 74.7294C27.2003 74.5928 26.1329 73.8471 25.1467 73.9098C25.3903 74.0065 25.7558 74.052 25.7326 74.1887C25.4541 74.126 24.1837 73.8415 24.5666 73.6138C24.3519 73.5682 24.1489 73.5455 23.8588 73.4203C23.6616 73.5683 24.3055 73.5853 24.2475 73.7105C23.8472 73.5967 22.9364 73.3747 22.7392 73.0275C21.9444 72.7714 21.2831 72.4469 20.6855 72.168C20.0938 71.8778 19.5775 71.5818 19.1482 71.2289C18.9858 71.4281 19.0322 71.0524 18.864 70.9841C18.6319 70.9272 18.8292 71.2346 18.6725 71.1549C18.5913 71.1094 18.5623 71.1378 18.4927 71.1094C18.1678 70.9728 18.2664 70.8418 18.0866 70.7109C17.9242 70.7735 17.5587 70.5117 17.2512 70.341C17.3731 69.9881 16.6943 69.8571 16.3869 69.6579C15.7487 69.2766 15.099 68.7017 14.4493 68.1951C13.8169 67.6715 13.1846 67.2104 12.7437 66.8291C13.3586 67.5235 13.7067 67.5804 14.1824 68.2179C14.6755 68.4569 15.157 68.8269 15.6443 69.2197C16.1432 69.5953 16.6711 69.9596 17.1932 70.2499C17.1178 70.3466 17.2396 70.4491 17.228 70.5516C17.1004 70.5573 16.8916 70.4434 16.7581 70.4434C17.0134 70.7166 18.0054 70.9443 18.3825 71.4964C18.4985 71.3826 18.7189 71.6046 18.8988 71.707C19.3165 71.5419 20.5521 72.1453 21.0046 72.4185C20.9466 72.4925 20.2447 72.077 20.4651 72.2762C20.7146 72.39 20.9756 72.5039 20.9118 72.6405C20.7552 72.6006 20.4419 72.3616 20.3897 72.4526C20.6275 72.6405 21.2135 72.8112 20.9466 73.0275C21.2889 73.221 20.906 72.8055 21.2773 72.9649C21.2831 73.0104 21.3295 73.0503 21.4281 73.0844C21.4513 73.3406 21.1845 73.2324 21.0452 73.2836C21.3759 73.5739 21.4745 73.4032 21.5267 73.3406C21.7414 73.5796 21.2367 73.4089 21.4165 73.6081C21.7472 73.8528 22.1533 74.0008 22.3505 74.0691C22.2519 74.0236 22.2287 73.9667 22.2055 73.9155C22.3505 74.0008 22.6231 73.9155 22.6464 74.0748C22.5419 74.0464 22.3969 73.9781 22.3621 74.0236C22.8146 74.3253 23.6616 74.5017 23.8878 74.8205C24.1257 74.8375 23.7718 74.6269 24.0386 74.6668C24.5723 74.7749 24.4505 74.9855 24.787 75.1278C24.8566 75.0766 24.7522 74.8546 24.9436 74.9286C25.2511 75.0652 25.8428 75.088 25.721 75.2986C25.6166 75.31 25.0132 75.162 25.2337 75.2758C25.7732 75.3213 26.1097 75.5149 26.3823 75.3669C26.7362 75.5149 26.2547 75.6002 26.5912 75.7141C26.7246 75.7198 26.6492 75.5376 26.8174 75.5718C26.916 75.6856 27.85 76.1239 27.4381 75.8222C27.821 75.9588 27.8964 75.9702 28.4476 76.1068C28.4766 76.0385 28.4476 75.9247 28.5752 75.9361C29.3351 76.1808 30.0719 76.2548 30.7796 76.3516C31.4874 76.4313 32.1719 76.5223 32.8623 76.6475C32.9029 76.5679 32.7346 76.5166 32.8739 76.5052C33.396 76.6077 33.8253 76.6988 34.1849 76.5223C34.1849 76.5906 34.1385 76.6248 34.0863 76.6646C34.475 76.5963 34.9623 76.7215 35.3104 76.8126C35.0493 76.9947 34.5678 76.8126 34.4518 77.12C35.1131 77.12 35.4032 76.7329 36.1573 76.8411C36.285 76.7329 35.9137 76.6532 36.1516 76.6475C36.4358 76.7158 36.517 76.7045 36.7143 76.602C36.7143 76.7671 36.9927 76.7671 37.19 76.824C37.9267 76.6077 38.6751 76.898 39.3364 76.5622C39.7135 76.5679 40.1312 76.5735 40.5663 76.5394C41.0014 76.4882 41.448 76.4256 41.8831 76.3459C42.7591 76.1922 43.5829 75.9987 44.1514 75.8052C44.2616 75.9133 44.6735 75.7368 44.6677 75.9361C45.1492 75.6344 45.5147 75.8507 45.8337 75.5433C45.7177 75.5661 45.6133 75.5832 45.6249 75.4978C45.8338 75.401 45.857 75.4067 46.2456 75.2872C46.2746 75.3555 46.2804 75.4523 46.4719 75.3783C46.6749 75.0026 47.4871 75.105 47.9396 75.0311C47.9338 74.9343 47.783 74.9741 47.7075 74.9457C48.0556 74.8318 48.6763 74.5529 48.8446 74.7635C48.6357 74.8944 48.4617 74.6782 48.3863 74.8774C48.5139 74.8432 48.5255 74.94 48.6125 74.9514C49.4885 74.348 50.8402 73.9382 51.4783 73.7333C51.7046 73.6479 51.7394 73.4487 51.8438 73.4032C52.1106 73.2894 52.4181 73.3861 52.8416 73.0901C52.7662 73.1413 52.9634 73.0389 53.1781 72.9251C53.2651 72.8852 54.0947 72.3673 54.4079 72.4299C54.5065 72.5209 53.7814 72.8169 54.0599 72.7657C54.3557 72.6006 54.4311 72.4982 54.7386 72.4299C54.64 72.3388 54.727 72.2363 54.8604 72.168C54.988 72.0884 55.1679 72.0258 55.2665 72.0314C55.0519 72.2534 54.6806 72.4526 54.6458 72.6462C55.1447 72.3331 55.951 71.559 56.1193 71.9745C56.0961 71.9347 56.2295 71.8379 56.2817 71.8778C56.0149 72.1794 56.2005 72.1851 55.9742 72.4583C56.3919 71.9631 56.9024 71.7355 57.3897 71.485C57.8712 71.2289 58.3527 70.9898 58.608 70.4093C58.6834 70.4719 58.5848 70.5572 58.6486 70.6199C58.8923 70.4491 58.7762 70.341 59.1243 70.1474C59.1649 70.2328 59.2751 70.1702 59.3215 70.2442C59.5072 70.0848 59.7276 69.9141 59.7972 69.7718C59.4724 70.0393 59.2635 70.0677 59.1127 69.9767C59.6638 69.6579 59.774 69.305 60.389 69.1457C60.0583 69.3392 60.2555 69.4303 59.9191 69.6181C60.0641 69.6522 60.1395 69.8401 60.4122 69.6124C60.3774 69.5498 60.2729 69.4929 60.3658 69.4075C60.447 69.6067 61.5144 68.9294 61.9031 68.5651C61.8567 68.3659 61.6304 68.622 61.5608 68.474C61.6826 68.4399 61.8509 68.2919 62.0191 68.1325C61.9495 68.3488 61.9901 68.2976 62.1467 68.4114C62.4078 68.2407 62.1351 68.2065 62.3324 68.0528C62.4484 68.1951 62.7733 67.791 62.9299 67.8479C63.1271 67.4495 63.3128 67.4666 63.3534 67.5918C63.5274 67.2503 63.6666 67.1877 63.7479 66.9031C63.9335 66.8632 63.7885 66.9543 63.8871 67.0397C64.1539 66.7266 64.1365 66.7722 64.415 66.6185C64.4846 66.4819 64.4846 66.3623 64.5426 66.2144C64.7341 66.1574 64.8327 65.9525 64.7167 66.2428C65.5114 65.537 65.3258 64.9109 65.7493 64.6149C65.5114 64.3417 65.9117 64.1084 66.2424 63.9205C66.2424 63.7555 65.9349 63.9888 66.0915 63.801C66.3468 63.6701 66.4918 63.5107 66.6833 63.192C66.8573 63.2204 66.7123 63.4026 66.7645 63.488C66.8283 63.2717 67.0835 63.0895 67.0719 63.0098C66.9675 63.1009 66.8689 63.1464 66.7819 63.1464C66.9211 62.97 66.8863 62.8789 67.0893 62.6683L67.2054 62.7537C67.4722 61.9625 68.3366 61.2112 68.3598 60.8071C68.499 60.5396 68.5803 60.716 68.7079 60.5851C68.6557 60.5453 68.5919 60.5623 68.528 60.5851C68.5919 60.3517 69.4736 59.5947 68.9457 59.959C69.1952 59.5947 69.433 59.5776 69.4736 59.2874C69.346 59.4695 69.2474 59.4069 69.346 59.2134C69.3402 59.3613 69.4446 59.35 69.5723 59.128C69.5491 59.0085 69.6303 58.8263 69.6883 58.6556C69.6709 58.9345 69.99 58.3311 70.019 58.1945C69.9725 58.2514 69.9203 58.3539 69.8797 58.3311C69.9609 58.1604 70.1292 57.6823 70.3148 57.6083C70.3438 57.688 70.135 57.9213 70.2104 57.9782C70.4482 57.7449 70.367 57.5855 70.5063 57.2895C70.8485 57.3009 70.7267 56.3617 71.1038 56.4357C70.8485 56.7317 70.8195 57.0618 70.7615 57.3407C70.6977 57.614 70.6281 57.8473 70.3438 57.9498C70.5817 58.0921 70.2684 58.2856 70.1292 58.6897C70.3206 58.6726 70.1582 58.8718 70.2046 58.9458C70.4656 58.5872 70.2974 58.6897 70.3148 58.5759C70.4076 58.5246 70.5063 58.2856 70.5933 58.3994C70.5411 58.4962 70.4482 58.6271 70.4889 58.6669C70.6571 58.3084 70.8137 58.1661 70.9587 58.1604C71.0342 57.9156 71.1502 57.7392 71.301 57.5001C71.4402 57.2497 71.6085 56.9423 71.8115 56.4528C71.8115 56.2593 71.6143 56.5097 71.7187 56.2024C72.4555 55.1721 72.5715 53.9996 72.9776 53.1344C72.9022 52.9011 72.6527 53.2028 72.7977 52.7702C72.9428 52.5767 73.0182 52.6677 73.111 52.7759C73.227 51.8993 73.6969 51.4667 73.958 50.5617C73.6679 50.0836 74.3873 48.9282 74.2016 48.2907C74.161 48.7289 74.0218 49.2754 73.8013 49.4461C73.7201 49.0648 73.929 47.9947 74.2248 48.1939C74.1784 47.6646 74.6483 47.306 74.3931 47.084C74.7469 47.0442 74.9094 45.9855 74.892 45.3651C74.892 45.4561 74.9674 45.2341 74.9964 45.0008C75.0718 44.3861 75.1762 43.6973 75.2516 43.02C75.2806 42.4907 75.2748 41.9613 75.2284 41.4775C75.2806 41.4775 75.3387 41.4832 75.4083 41.506C75.3677 40.9254 75.3271 40.3505 75.2864 39.7813C75.298 39.7927 75.3097 39.7984 75.3387 39.787C75.2574 39.5024 75.2807 39.4 75.24 39.1325C75.2226 38.9389 75.211 38.7511 75.1936 38.5576C75.2923 38.3185 75.3677 37.8859 75.3909 37.6412C75.4025 37.8233 75.5301 37.7493 75.5069 38.0055C75.4373 38.4153 75.4663 38.9219 75.6519 39.2178C75.6171 39.4114 75.5707 39.4171 75.5011 39.3146C75.6229 40.4074 75.4663 41.2214 75.6751 42.2231C75.5069 41.9727 75.5011 43.1395 75.6867 42.8834C75.5475 43.5152 75.4025 44.3234 75.3271 45.126C75.2864 45.5301 75.2574 45.9286 75.2516 46.3042C75.2458 46.492 75.2458 46.6742 75.2516 46.8449C75.2458 47.0157 75.2458 47.1751 75.2516 47.3288C75.3155 46.862 75.5939 46.0424 75.4605 45.6269C75.6403 45.8716 75.5591 45.2171 75.4837 45.1488L75.6287 45.1658C75.942 43.1395 75.9768 40.988 76 38.9105ZM62.1235 12.5913C62.2918 12.5116 62.3962 12.7621 62.46 12.893C62.3672 12.9613 62.1467 12.6539 62.1235 12.5913ZM21.4339 71.1833C21.4513 70.9329 21.8574 71.2972 21.8922 71.2346C22.101 71.4224 21.6427 71.3143 21.4339 71.1833ZM24.2475 72.8055C24.3693 72.5551 24.5201 72.8852 24.8566 72.9649C24.787 73.056 24.4331 72.8397 24.2475 72.8055ZM24.9552 72.077C24.9958 71.9518 25.3787 72.0997 25.4657 72.2022C25.4193 72.299 25.1061 72.0997 24.9552 72.077ZM31.0291 74.5245C31.1103 74.496 31.2379 74.5017 31.3888 74.5245C31.3714 74.5928 31.3598 74.6611 31.4584 74.6839C31.383 74.7806 30.9073 74.6497 31.0291 74.5245ZM33.8717 75.0595C33.8137 74.9229 34.0573 74.9684 34.0573 74.8774C33.3496 74.7066 32.6128 74.8091 32.3866 74.4163C32.9957 74.5871 33.2451 74.4505 33.7208 74.3765C33.8369 74.4277 33.8891 74.5131 34.0689 74.5359C33.9297 74.644 33.8485 74.5985 33.6222 74.5643C33.686 74.7521 33.9239 74.8603 34.3242 74.8888C34.388 75.0709 34.1791 75.0937 33.8717 75.0595ZM72.2872 48.3305C72.3974 48.3419 72.2292 48.6436 72.2234 48.7745C72.1944 48.7289 72.1654 48.6777 72.1538 48.6094C72.1886 48.5297 72.2234 48.4557 72.2524 48.3761C72.264 48.3761 72.2756 48.3647 72.2872 48.3305ZM71.4983 54.5631C71.301 54.8876 71.3532 54.8477 71.1792 55.2347C71.0342 55.3429 70.8833 55.1892 71.0748 54.8876C71.2198 55.2575 71.2256 54.5062 71.4983 54.5631ZM47.7017 72.4469C47.6785 72.5665 47.2492 72.6462 47.052 72.7145C47.1274 72.4526 47.3537 72.5551 47.7017 72.4469ZM43.1014 74.4619C42.6025 74.5074 42.3704 74.4391 41.8135 74.422C42.0688 74.1659 42.5967 74.2797 43.1188 74.1147C43.113 74.2342 43.0144 74.3196 43.1014 74.4619ZM40.3748 74.496C40.3052 74.6611 40.0732 74.5017 40.0151 74.4789C39.9745 74.3708 40.2646 74.4106 40.2588 74.3139C40.5721 74.2854 40.0674 74.5302 40.3748 74.496ZM41.448 74.4334C41.4074 74.5529 41.1754 74.6042 41.1348 74.7237C40.9955 74.5985 40.369 74.8318 40.3052 74.6497C40.7171 74.7351 40.9839 74.3993 41.448 74.4334ZM40.7867 73.7447C40.5024 73.813 40.2472 73.9041 39.7773 73.9667C39.5743 73.7219 39.9803 73.6309 40.4908 73.5056C41.0014 73.3918 41.6279 73.3121 41.8715 73.2438C42.2544 73.3121 42.3588 73.4943 41.8541 73.6366C41.8657 73.5967 41.9353 73.5739 41.9237 73.5284C41.3726 73.6138 41.071 73.6764 40.7867 73.7447ZM39.9339 74.5359C39.29 74.7009 37.7875 74.7066 38.1472 74.4562C38.6055 74.6326 39.1914 74.3879 39.9339 74.5359ZM42.3414 73.4146C42.2892 73.295 42.4981 73.2609 42.6547 73.2153C42.6779 73.3406 42.5097 73.4772 42.3414 73.4146ZM42.997 71.9518C42.3994 72.0371 41.7961 72.0941 41.332 72.1567C41.129 72.2364 41.4364 72.3559 41.6163 72.3103C41.5583 72.4583 41.2624 72.3502 41.1174 72.39C41.0942 72.3047 41.2044 72.2762 41.1696 72.1851C41.1174 72.0827 40.7577 72.2307 40.5837 72.225C41.1116 71.9062 41.6627 71.7924 42.3008 71.7184C42.6199 71.6842 42.9622 71.6501 43.3218 71.6102C43.6815 71.5533 44.0644 71.4622 44.4821 71.3484C44.4937 71.4167 44.5053 71.485 44.6039 71.4679C44.3893 71.5761 44.1398 71.6729 43.8671 71.7582C43.7337 71.8038 43.5887 71.8436 43.4437 71.8778C43.2928 71.9005 43.1478 71.929 42.997 71.9518ZM23.2671 66.2144C23.3019 66.2087 23.3425 66.2144 23.3773 66.2314C23.3715 66.2428 23.3773 66.2542 23.3657 66.2656C23.2555 66.2428 23.2033 66.2314 23.1743 66.2144C23.2091 66.2144 23.2381 66.2201 23.2671 66.2144ZM18.6087 64.2734C18.5855 64.2962 18.5565 64.319 18.5333 64.3417C18.5101 64.3303 18.4869 64.319 18.4637 64.3076C18.4753 64.2905 18.4869 64.2734 18.4985 64.2564C18.5101 64.2393 18.5217 64.2222 18.5333 64.2051C18.5565 64.2279 18.5797 64.2507 18.6087 64.2734ZM33.4598 11.0943C33.396 11.157 33.2974 11.1911 33.1465 11.2025C33.1233 11.2025 33.1001 11.2025 33.0769 11.2025C33.0131 11.1797 32.9087 11.1968 32.8043 11.2082C33.0131 11.1 33.2335 11.0773 33.4598 11.0943ZM73.9 30.1621C73.9638 30.3727 73.9116 30.4638 73.8536 30.5491C73.7839 30.293 73.7665 30.0255 73.6853 29.7694C73.6911 29.7181 73.6969 29.6726 73.7085 29.6384C73.871 30.1735 73.6563 30.1279 73.9 30.1621ZM74.0218 30.6117C74.0508 30.7768 74.0798 30.8963 74.103 31.0045C74.0914 30.9988 74.0856 30.9931 74.0682 30.9931C74.0334 30.9476 74.0044 30.902 73.9812 30.8565C73.9348 30.7085 73.9 30.5776 74.0218 30.6117ZM73.7027 42.6614C73.7143 42.5362 73.6911 42.4622 73.6505 42.4167C73.6679 42.2061 73.6969 42.0069 73.7433 41.8589C73.7781 41.9158 73.8071 41.9784 73.8361 42.041C73.8477 41.9556 73.8129 41.8304 73.8013 41.7166C73.8071 41.7052 73.8129 41.6881 73.8187 41.6767C73.8129 41.654 73.8071 41.6255 73.8013 41.597C73.8071 41.5572 73.8245 41.523 73.8594 41.5003C73.871 41.671 73.9928 41.6653 73.9348 41.9556C73.6041 42.3028 73.8245 42.1093 73.7027 42.6614ZM43.2174 11.5838C43.1594 11.5952 43.1304 11.5782 43.113 11.5554C43.1478 11.544 43.1884 11.5383 43.229 11.5269C43.229 11.5554 43.2232 11.5838 43.2174 11.5838ZM66.8631 20.7819C66.7123 20.7705 66.5846 20.7307 66.573 20.5485C66.573 20.5428 66.573 20.5428 66.573 20.5372C66.6717 20.6111 66.7703 20.6908 66.8631 20.7819ZM73.6099 39.8781C73.5983 39.7358 73.5867 39.5878 73.5751 39.4398C73.5809 39.4284 73.5867 39.4171 73.5867 39.4057C73.6215 39.2975 73.7201 39.2065 73.8129 39.1154C73.8129 39.2634 73.8129 39.4171 73.8187 39.565C73.8303 39.8952 73.8536 40.2139 73.9058 40.5156C73.8303 40.5213 73.7375 40.5042 73.7491 40.692C73.8245 40.7091 73.9348 40.6636 73.9406 40.7831C73.9058 41.0506 73.8477 41.2669 73.7607 41.4377C73.6621 40.9994 73.6331 40.453 73.6099 39.8781ZM73.7897 38.6031C73.7897 38.6259 73.7897 38.6544 73.7955 38.6771C73.7839 38.6487 73.7839 38.6259 73.7897 38.6031ZM68.9747 23.0245C68.8645 22.9107 68.8877 22.7513 69.0269 22.6431C69.0386 22.6374 69.0502 22.6318 69.0676 22.6318C69.23 22.8253 69.3808 23.0473 69.5259 23.2977C69.317 23.3375 69.201 23.2636 68.9747 23.0245ZM68.8123 22.3642C68.6441 22.3187 68.5339 22.2106 68.4758 22.0455C68.5919 22.1423 68.7021 22.2447 68.8123 22.3642ZM73.6447 42.4964C73.6621 42.6045 73.6563 42.724 73.6331 42.8436C73.6331 42.7297 73.6331 42.6102 73.6447 42.4964ZM74.7411 34.1236C74.7643 34.0553 74.7991 33.9813 74.8398 33.913C74.8456 34.0667 74.8224 34.1976 74.7585 34.2488C74.7527 34.209 74.7469 34.1635 74.7411 34.1236ZM74.6251 33.23C74.6251 33.2015 74.6251 33.1617 74.6309 33.1389C74.6657 33.1788 74.6947 33.2414 74.7237 33.3211C74.6947 33.2983 74.6599 33.2698 74.6251 33.23ZM74.3293 32.251C74.2074 32.5128 74.3815 32.8259 74.4685 32.7917C74.4569 32.9113 74.4221 32.9511 74.3815 32.9568C74.3409 32.9056 74.3002 32.8543 74.2654 32.8031C74.2538 32.769 74.248 32.7348 74.2422 32.7007C74.1958 32.6437 74.1436 32.5925 74.0914 32.547C74.0624 32.4958 74.0334 32.4502 74.0218 32.4218C73.9812 32.325 74.0972 32.1941 74.219 32.2112C74.248 32.2169 74.2828 32.2225 74.3118 32.2339C74.3234 32.2396 74.3234 32.2453 74.3293 32.251ZM73.6389 29.6498C73.6331 29.6441 73.6331 29.6327 73.6273 29.6214C73.6099 29.5815 73.6099 29.5531 73.6157 29.5189C73.6273 29.5644 73.6331 29.61 73.6389 29.6498ZM34.0225 11.2139C33.9645 11.2082 33.9181 11.1968 33.8717 11.174C33.9181 11.1854 33.9703 11.1968 34.0225 11.2139ZM45.8047 72.5494C45.8744 72.7543 45.5437 72.5949 45.3116 72.7259C45.3929 72.5836 45.5785 72.5722 45.8047 72.5494ZM64.8095 63.6075C64.9023 63.7668 64.5542 63.875 64.3512 64.1824C64.2932 64.1198 64.1945 64.1994 64.1423 64.1254C64.3744 63.9319 64.6064 63.7213 64.8095 63.6075ZM65.262 63.0326C65.3084 63.0838 65.3606 63.1294 65.436 63.0554C65.5462 63.1464 65.1808 63.5164 65.0473 63.5619C64.9835 63.4424 65.0647 63.2603 65.262 63.0326ZM72.4439 47.8923C72.4613 47.9036 72.4787 47.9093 72.4961 47.9207C72.438 48.0516 72.4148 48.063 72.3858 48.0459C72.4032 47.989 72.4265 47.9435 72.4439 47.8923ZM73.5113 44.2722C73.5055 44.1982 73.4997 44.1299 73.4881 44.0673C73.5171 44.0389 73.5461 44.0161 73.5751 44.0047C73.5693 44.0901 73.5461 44.1812 73.5113 44.2722ZM73.6911 43.6917C73.6737 43.5778 73.6563 43.4298 73.6447 43.2705C73.6737 43.1395 73.7085 43.02 73.7839 42.8493C73.7607 43.2534 73.7201 43.3843 73.7375 43.6803C73.7259 43.686 73.7085 43.6917 73.6911 43.6917ZM74.863 35.7913C74.9094 35.5694 74.9268 35.3474 74.8862 35.0742C75.1588 35.1823 75.0428 35.8198 74.9036 36.0475C74.892 35.9621 74.8746 35.8767 74.863 35.7913ZM74.7875 34.431C74.8746 34.5334 74.9268 34.7327 74.9674 34.966C74.7934 35.0742 74.7353 34.579 74.7875 34.431ZM74.0914 29.9173L73.9 29.9686C73.8303 29.8149 73.9406 29.5588 73.7781 29.5189C73.7433 29.2059 73.9 29.5929 73.9464 29.5701C73.9696 29.4506 73.9058 29.3823 73.8245 29.2912C73.8594 29.2628 73.8884 29.2343 73.9174 29.2059C74.0392 29.3937 74.1262 29.6271 74.0914 29.9173ZM73.7143 28.3692C73.6505 28.3635 73.6157 28.1984 73.5809 28.0675C73.5867 28.0675 73.5925 28.0675 73.5983 28.0675C73.6447 28.0618 73.6853 28.0276 73.7143 27.9878C73.8361 28.2439 73.6969 28.2212 73.7143 28.3692ZM72.9196 27.4698C72.937 27.4585 72.9834 27.4641 73.0066 27.4812C73.1748 27.5894 73.285 27.726 73.3256 27.9309C73.343 28.0276 73.4243 28.0618 73.5171 28.0675C73.5345 28.1415 73.5461 28.2212 73.5461 28.3236C73.4997 28.335 73.5113 28.4147 73.4765 28.4431C73.3546 28.0276 73.1226 28.1699 73.4069 28.3692C73.4185 28.4261 73.4301 28.483 73.4417 28.5399C73.285 28.5342 73.1284 28.5342 72.9718 28.5171C72.9254 28.5114 72.8557 28.3976 72.8673 28.3464C72.9021 28.2098 73.0298 28.0732 73.0124 27.9593C72.9892 27.8284 72.8209 27.7317 72.8557 27.5609C72.8557 27.5268 72.8848 27.4926 72.9196 27.4698ZM71.2604 24.4588C71.2024 24.4304 71.1444 24.4076 71.0864 24.4361C71.0516 24.3507 71.011 24.2824 70.9762 24.2198C70.9646 24.1629 70.9587 24.1003 70.9587 24.0433C71.0516 24.1686 71.1618 24.3222 71.2604 24.4588ZM64.9487 15.9666C64.9835 16.0064 65.0241 16.052 65.0589 16.0918C65.0531 16.1032 65.0473 16.1203 65.0357 16.1316C64.8327 16.0918 64.7341 15.83 64.6122 15.5795C64.7225 15.7104 64.8327 15.8414 64.9487 15.9666ZM61.584 14.9136C61.6014 14.925 61.613 14.9477 61.6246 14.9705C61.584 14.9534 61.5434 14.9364 61.5028 14.925C61.5202 14.9022 61.5492 14.8908 61.584 14.9136ZM32.1313 11.2993C32.1313 11.3391 32.1313 11.3789 32.1371 11.4131C32.2299 11.4131 32.2879 11.3619 32.3228 11.2936C32.4794 11.2936 32.636 11.2993 32.7985 11.3049C32.7404 11.4302 32.6244 11.5098 32.5142 11.5838C32.3286 11.7034 32.1951 11.6351 32.1313 11.4359C32.0675 11.4586 31.9979 11.4757 31.9341 11.5042C31.6266 11.6578 31.5164 11.6522 31.354 11.4472C31.3482 11.4416 31.3424 11.4302 31.3365 11.4245C31.5976 11.3391 31.8587 11.3106 32.1313 11.2993ZM29.863 11.6522C30.1299 11.6009 30.3852 11.5782 30.6172 11.5782C30.5592 11.6294 30.4838 11.6635 30.3619 11.6578C30.2865 11.6578 30.1821 11.6578 30.1473 11.7034C29.8863 12.0278 29.4686 11.7603 29.1785 11.9652C28.9755 12.1075 28.8594 12.0335 28.7608 11.9254C29.1321 11.8001 29.5092 11.7148 29.863 11.6522ZM10.5741 57.4546C10.5392 57.4489 10.5102 57.3407 10.516 57.2838C10.5218 57.2554 10.5392 57.2269 10.5567 57.1984C10.5741 57.17 10.5973 57.1472 10.6147 57.1188C10.6437 57.1757 10.6901 57.2269 10.7017 57.2838C10.7191 57.3749 10.7075 57.483 10.5741 57.4546ZM11.6357 60.3176C11.6241 60.3688 11.5545 60.403 11.5139 60.4485C11.4906 60.42 11.4442 60.3973 11.4442 60.3688C11.4326 60.2663 11.4326 60.1639 11.4268 60.0615C11.421 60.0615 11.4152 60.0615 11.4094 60.0615C11.4094 60.0558 11.4094 60.0444 11.4094 60.0387C11.3572 60.0159 11.305 59.9931 11.2586 59.9647C11.247 59.959 11.2644 59.8907 11.2702 59.8907C11.3978 59.8736 11.4036 59.9533 11.4094 60.0387C11.4152 60.0387 11.421 60.0444 11.4268 60.0444C11.4268 60.0501 11.4268 60.0558 11.4268 60.0615C11.5951 60.0615 11.6821 60.1468 11.6357 60.3176ZM12.3376 60.9437C12.2796 60.9095 12.2216 60.8754 12.1578 60.8412C12.2216 60.8071 12.2854 60.7502 12.3492 60.7559C12.413 60.7559 12.471 60.8185 12.5349 60.8583C12.471 60.8811 12.4014 60.9152 12.3376 60.9437ZM12.8075 61.4332C12.8017 61.5186 12.7959 61.6039 12.6625 61.5812C12.6567 61.5812 12.6393 61.5129 12.6509 61.5072C12.6973 61.4787 12.7495 61.456 12.8075 61.4332C12.8075 61.4275 12.8075 61.4161 12.8075 61.4104C12.8133 61.4104 12.8191 61.4104 12.8249 61.4104C12.8191 61.2738 12.8017 61.1372 12.9177 61.0291C12.9874 60.9665 13.2136 60.9665 13.2078 61.0291C13.202 61.086 13.1846 61.1543 13.1498 61.1941C13.0628 61.2966 12.9874 61.4218 12.8191 61.4104C12.8191 61.4161 12.8191 61.4218 12.8191 61.4275C12.8191 61.4275 12.8133 61.4332 12.8075 61.4332ZM13.7241 61.6438C13.5617 62.0081 13.2194 62.287 13.1846 62.7195C13.1846 62.7423 13.0454 62.7765 12.9874 62.7594C12.9293 62.7423 12.8423 62.6569 12.8481 62.6171C12.9583 62.1902 13.1498 61.7918 13.4224 61.4389C13.4457 61.4104 13.5675 61.4389 13.6371 61.456C13.6371 61.456 13.6371 61.456 13.6429 61.456C13.6603 61.473 13.6777 61.4901 13.7009 61.5072C13.7067 61.5186 13.7125 61.5243 13.7241 61.5299C13.7183 61.5755 13.7415 61.6153 13.7241 61.6438ZM17.199 64.4726C17.1584 64.558 17.1004 64.5922 17.0134 64.5637C17.0366 64.4897 17.083 64.4271 17.199 64.41C17.3963 64.3816 17.4833 64.5011 17.4601 64.6719C17.4601 64.6946 17.4659 64.706 17.4659 64.7231C17.4021 64.6605 17.3267 64.5808 17.199 64.4726ZM18.6493 64.8255C18.6493 64.8312 18.6435 64.8426 18.6435 64.8483L18.6261 64.8312C18.6319 64.8312 18.6377 64.8312 18.6493 64.8255C18.6551 64.8085 18.6609 64.7914 18.6667 64.7743C18.6841 64.7857 18.7015 64.7914 18.7131 64.8028C18.6899 64.8142 18.6667 64.8199 18.6493 64.8255ZM26.4867 70.8248C25.7674 70.5003 25.0655 70.1759 24.2127 70.0222C23.9342 69.897 23.6616 69.7205 23.3657 69.5384C23.3367 69.5156 23.3019 69.4929 23.2671 69.4758C23.4005 69.5042 23.5339 69.5327 23.6616 69.5612C23.9806 69.6295 24.2881 69.6978 24.5956 69.7888C24.9088 69.8685 25.2337 69.971 25.5818 70.1247C26.1677 69.8685 26.9973 70.8874 27.5542 70.8134C27.3337 70.4662 28.2735 70.7508 28.813 70.8134C28.726 70.9671 28.7898 71.1663 28.8246 71.4452C27.9661 71.3598 27.2235 71.0923 26.4867 70.8248ZM37.3408 72.612C37.5148 72.5039 37.6193 72.7259 37.9325 72.6746C37.9267 72.6291 37.8281 72.6462 37.7585 72.6348C37.7759 72.5665 38.0079 72.6063 38.0021 72.5266C37.9035 72.4242 37.4742 72.538 37.248 72.5209C37.5902 72.2819 38.443 72.299 38.7215 72.1453C38.8607 72.242 38.8027 72.4014 38.7505 72.4356C38.8433 72.5949 38.9361 72.4299 39.0928 72.5096C39.319 72.4299 38.8201 72.4299 38.9013 72.2819C39.5394 72.2364 39.6903 72.2876 39.9687 72.1168C40.2414 72.1567 39.9687 72.2022 40.4676 72.094C40.5547 72.4185 39.9455 72.2534 39.7483 72.373C40.0558 72.5779 40.7983 72.0485 40.8505 72.3786C40.5895 72.4071 40.3168 72.464 40.0325 72.5209C39.7483 72.5608 39.4524 72.6063 39.1508 72.6462C38.5532 72.7202 37.9267 72.76 37.3408 72.612ZM37.5322 74.5814C37.451 74.7294 37.7353 74.6554 37.8919 74.6611C37.6018 74.7408 37.1261 74.7635 36.5982 74.7806C36.0645 74.7635 35.4786 74.7351 34.9565 74.7692C35.583 74.4106 36.5924 74.7521 37.5322 74.5814ZM34.6896 74.9001C35.1943 74.9798 35.3162 74.9457 35.8557 74.9912C35.351 74.7465 36.9753 74.8717 37.1087 74.9855C36.6853 75.1221 36.1864 75.0937 35.7165 75.0652C35.2466 75.0424 34.8115 75.0197 34.504 75.1335C34.4286 74.9798 34.649 74.9912 34.6896 74.9001ZM34.4054 75.327C34.4808 75.162 34.7245 75.2872 34.8579 75.3441C34.8347 75.458 34.4576 75.3555 34.4054 75.327ZM40.5257 75.5945L40.5024 75.4409C40.4618 75.4522 40.4212 75.4579 40.3806 75.4693C40.1834 75.5035 39.9803 75.5263 39.7657 75.5547C39.3422 75.6059 38.8955 75.6515 38.443 75.6799C37.5322 75.7312 36.5692 75.7767 35.67 75.6116C35.5714 75.623 35.6062 75.7084 35.4902 75.7027C35.2756 75.6799 35.1131 75.6287 34.9449 75.5832C34.9681 75.4352 35.3974 75.5206 35.6758 75.5149C35.6817 75.4466 35.6875 75.3783 35.583 75.3669C36.4648 75.3441 38.0601 75.3498 39.3596 75.0026C39.6555 75.0368 39.9397 75.0766 40.108 75.1904C40.369 75.1335 40.0326 75.0424 40.079 74.9514C40.3052 74.9058 40.514 75.0937 40.6243 74.94C40.8911 74.9457 40.7345 74.9969 40.7403 75.1164C41.187 74.9798 41.5061 74.8717 41.8019 74.8603C41.8657 74.6895 41.5119 74.8318 41.3378 74.8318C41.5931 74.6212 42.2254 74.5871 42.4981 74.6497C42.6025 74.8205 42.1384 75.0311 42.6547 74.9685C42.2892 75.2018 41.1986 75.0311 41.042 75.2701C41.7497 75.2872 42.9331 74.9229 43.3508 75.1506C42.4168 75.5262 41.5525 75.3783 40.5257 75.5945ZM44.6735 74.4391C44.6619 74.3537 44.5401 74.3651 44.5401 74.274C44.8766 74.1374 44.8417 74.348 45.1782 74.2114C45.1086 74.3082 44.8185 74.3594 44.6735 74.4391ZM47.0578 73.5626C45.9846 73.7276 45.0622 74.0008 43.9658 74.2171C44.0006 74.3025 44.2674 74.1716 44.337 74.2228C44.3602 74.3708 43.8207 74.4448 43.7975 74.2968C43.5713 74.4334 43.5597 74.4789 43.6931 74.6554C43.287 74.5529 43.2058 74.4277 43.345 74.3196C43.4901 74.2057 43.8613 74.1203 44.3718 74.0122C44.279 73.961 44.076 74.0122 43.9136 74.0293C43.8381 73.8927 44.3022 73.8927 44.3138 73.7789C44.4357 73.7618 44.4183 73.8813 44.4473 73.9439C45.2768 73.6821 45.3348 73.6422 46.2398 73.3804C46.4081 73.5227 46.6749 73.2666 46.907 73.4032C47.1274 73.3007 46.6111 73.369 46.8432 73.221C47.4639 73.0958 47.4465 73.2324 48.0614 72.9308C48.0266 72.7998 47.5335 73.1812 47.5915 72.9478C48.0034 72.8795 48.2935 72.7315 48.5777 72.538C48.6473 72.6348 48.6299 72.7145 48.5835 72.7942C48.8098 72.7259 48.833 72.6291 48.7634 72.5209C49.1694 72.316 49.3087 72.4128 49.5059 72.4526C49.1984 72.9421 47.5567 73.1869 47.0578 73.5626ZM55.1157 71.4338C55.1041 71.1833 55.4695 71.1606 55.6726 70.9329C55.748 71.0809 55.2839 71.2687 55.1157 71.4338ZM57.6798 70.8988C57.529 71.2516 57.5406 70.8305 57.3027 71.0183C57.2911 70.95 57.4826 70.8589 57.5986 70.7792C57.6334 70.8418 57.6624 70.8988 57.761 70.8475C57.7726 70.9044 57.6914 70.9215 57.6798 70.8988ZM57.3839 70.1702L57.6972 69.9767L57.7842 70.0962C57.6218 70.1702 57.4361 70.2897 57.3839 70.1702ZM57.7494 69.8856C57.6856 69.7831 57.9409 69.6295 58.1381 69.4815L58.2251 69.5953C58.0453 69.7376 57.8712 69.8685 57.7494 69.8856ZM57.616 69.6523C57.1287 69.9824 56.6298 70.2897 56.3803 70.5003C56.4093 70.3011 56.827 69.9938 57.3259 69.6579C57.819 69.3164 58.3701 68.9066 58.7356 68.6106C58.5384 68.9123 58.0859 69.2937 57.616 69.6523ZM61.0677 68.9294C60.8995 68.8212 60.8705 68.8269 60.9169 68.6163C61.0967 68.6049 61.381 68.6846 61.0677 68.9294ZM61.3462 68.531C61.2649 68.531 61.1431 68.6277 61.0967 68.5366C61.1837 68.5082 61.2707 68.4797 61.2475 68.4228C61.3346 68.3659 61.3578 68.4513 61.4564 68.3716C61.4448 68.4342 61.4332 68.4968 61.4796 68.5423C61.3926 68.6049 61.2417 68.6277 61.3462 68.531ZM62.6804 67.8707C62.6572 67.8024 62.8313 67.6829 62.9299 67.5804C62.8777 67.5519 62.7733 67.6658 62.6804 67.7398C62.5528 67.7341 62.7791 67.4324 62.547 67.5975C62.5644 67.4836 62.9415 67.4552 63.0691 67.4495C62.8313 67.6885 62.9879 67.7056 62.6804 67.8707ZM64.357 65.0418L64.4672 65.1386L64.1481 65.4801C64.0205 65.4061 64.2816 65.1898 64.357 65.0418ZM64.8791 65.6281C64.9371 65.4061 64.7863 65.5769 64.6122 65.7704C64.5426 65.5541 65.0299 65.3663 65.2272 65.1727C65.3026 65.2581 64.9719 65.4858 64.8791 65.6281ZM65.1633 64.3816C65.0995 64.7914 64.9893 65.1671 64.357 65.5427C64.4208 65.2752 65.0009 64.9052 64.7979 64.5637C65.3838 64.0401 65.7435 63.5221 66.0625 63.3115C66.0567 63.6872 65.5288 64.2393 65.1633 64.3816ZM66.8399 62.4919C66.515 62.8505 66.3352 62.9358 66.2018 63.3001L66.0103 63.1521C66.3932 62.8049 66.6891 62.1959 67.1358 61.7861C67.1358 62.0593 66.7587 62.2357 66.8399 62.4919ZM70.7035 56.5553C70.5411 56.5496 70.6455 56.3504 70.4772 56.3447C70.6223 56.2536 70.7499 55.7698 70.9007 55.9292C70.7963 55.7356 71.1502 55.3827 71.3068 55.0925C71.0052 55.6332 70.9762 56.1739 70.7035 56.5553ZM70.7673 58.1604C70.6977 58.1148 70.6165 58.1604 70.5411 58.2571C70.454 58.1945 70.5701 58.0067 70.6977 57.8075C70.7035 57.9953 70.8195 57.7904 70.8253 57.9782C70.9355 57.8359 71.0574 57.4546 71.156 57.6139C71.0284 57.6879 70.8949 57.9441 70.7673 58.1604ZM71.2836 57.1472C71.2662 56.8569 71.4112 56.8 71.5795 56.5496C71.5911 56.8399 71.4519 56.8968 71.2836 57.1472ZM71.6201 53.7207C71.5911 53.624 71.6143 53.4703 71.7013 53.2597C71.8405 53.2881 71.7535 53.6296 71.6201 53.7207ZM71.5389 52.423C71.5331 52.1782 71.6665 52.0985 71.7419 51.7229C71.8869 51.7798 71.6491 52.3205 71.5389 52.423ZM72.032 50.4877C72.1712 50.613 71.8985 50.8293 71.9159 51.1138C71.7129 51.1309 71.9972 50.6926 72.032 50.4877ZM72.0088 52.0075C71.9566 51.666 72.0262 51.5066 72.1132 50.9886C72.1422 51.1366 72.061 51.6147 72.2698 51.1309C72.4323 51.3131 72.0958 51.683 72.0088 52.0075ZM72.7107 48.0573C72.5193 48.9396 72.6063 49.2754 72.5889 49.7023C72.5483 49.9072 72.4265 49.7649 72.3742 49.9242C72.6353 49.8389 72.4555 50.5048 72.3336 50.9488C72.177 50.8691 72.09 50.8691 72.0842 50.778C72.1712 50.704 72.2408 50.391 72.2176 50.2487C72.0378 50.465 72.1364 49.947 72.0204 49.9129C72.1016 49.7421 72.148 49.7478 72.1886 49.8673C72.2524 49.1957 72.5831 48.4216 72.6353 47.7556C72.6875 47.7784 72.7049 47.9321 72.7803 47.7841C72.5773 47.8809 72.8267 47.4824 72.6991 47.4938C72.6353 47.5906 72.5947 47.5621 72.5715 47.4824C72.6411 47.2775 72.7107 47.0726 72.7687 46.862C72.9486 46.7994 72.6817 47.2434 72.8093 47.2434C72.8848 46.8506 73.2328 46.253 73.0588 46.105C72.9544 46.4921 72.9602 46.6571 72.7745 46.8392C72.7803 46.8279 72.7803 46.8165 72.7861 46.8051C72.8673 46.4636 72.9312 46.1107 72.9834 45.7464C73.0588 45.7464 73.1226 45.7123 73.1864 45.661C73.1864 45.6667 73.1864 45.6667 73.1806 45.6724C73.3198 45.8659 73.2908 46.1164 73.2328 46.3725C73.169 46.6287 73.0646 46.8848 73.0936 47.1182C72.9718 47.3231 72.908 47.3003 72.8383 47.3458C72.966 47.5223 72.8093 48.3476 72.7455 48.524C72.5831 48.5354 72.8093 48.1199 72.7107 48.0573ZM72.7049 52.5311C72.8615 52.2294 72.7571 52.0701 72.9312 51.9164C73.169 51.8766 72.8673 52.7019 72.7049 52.5311ZM72.9428 51.7229C73.1458 51.5863 73.314 51.2163 73.5403 51.2163C73.3662 51.5521 73.1922 51.8766 72.9428 51.7229ZM74.9326 36.2808C74.9326 36.2808 74.9326 36.2865 74.9326 36.2922C74.9326 36.2922 74.9326 36.2865 74.9326 36.2808ZM75.153 35.8824C75.1936 35.7401 75.1994 36.2752 75.2516 36.6224C75.0312 36.5256 75.0834 36.1044 75.153 35.8824Z" fill="#00B307"/>
<path fill-rule="evenodd" clip-rule="evenodd" d="M21.3582 6.93927C21.219 7.14987 20.3198 7.42876 20.2676 7.51983C20.4648 7.49137 21.6483 6.97911 21.3582 6.93927Z" fill="#00B307"/>
<path fill-rule="evenodd" clip-rule="evenodd" d="M40.9246 0.319612C40.8665 0.205775 40.385 0.268383 40.3502 0.16593C40.9652 0.0350167 41.3596 0.450526 41.9862 0.507445C42.0094 0.450526 41.9862 0.370834 42.0964 0.376526C42.1892 0.456212 42.2414 0.541592 42.3633 0.609894C43.0246 0.581435 44.2486 0.962791 44.8056 0.797727C44.6663 0.689581 44.0978 0.644046 44.4575 0.530208C43.976 0.433447 44.3763 0.661121 44.1326 0.672505C44.121 0.632662 44.063 0.604203 43.947 0.592819C44.121 0.399296 43.3146 0.46191 42.9956 0.302537C42.7461 0.330997 43.1522 0.473292 42.8738 0.478984C42.6765 0.291152 42.2762 0.200083 42.2936 0.399298C42.3575 0.336688 41.5163 0.313923 41.8237 0.188702C40.7795 0.0919402 40.8897 -0.0105144 40.0718 0.000869334C40.1472 0.177317 40.0776 0.120392 40.153 0.29684C40.5359 0.222846 40.6693 0.376531 40.9246 0.319612Z" fill="#00B307"/>
<path fill-rule="evenodd" clip-rule="evenodd" d="M52.0312 7.66779C52.2691 7.7304 52.594 7.91254 52.7854 7.91254C52.594 7.79301 52.1589 7.59949 52.0312 7.66779Z" fill="#00B307"/>
<path fill-rule="evenodd" clip-rule="evenodd" d="M55.6381 7.84991C55.5453 7.9979 55.174 7.69623 54.9941 7.70192C55.0928 7.88406 55.8005 8.07189 55.6381 7.84991Z" fill="#00B307"/>
<path fill-rule="evenodd" clip-rule="evenodd" d="M58.1388 6.39854C58.1852 6.33024 58.3825 6.51238 58.4405 6.46685C58.2955 6.40424 58.2549 6.14241 58.4579 6.25056C58.5623 6.40424 58.6899 6.30178 58.9452 6.3587C58.4695 6.20502 57.785 5.75537 57.5703 5.83505C57.93 5.90335 58.3593 6.30178 58.1388 6.39854Z" fill="#00B307"/>
<path fill-rule="evenodd" clip-rule="evenodd" d="M58.3408 11.1853C58.219 11.2821 58.3988 11.4187 58.6076 11.561C58.5612 11.3333 59.0485 11.8001 58.8339 11.5496C58.6541 11.4244 58.5554 11.4642 58.5786 11.3049C58.6193 11.3333 58.6831 11.3333 58.6076 11.265C58.538 11.2878 58.4684 11.2992 58.3756 11.2764C58.3988 11.248 58.4046 11.2195 58.3408 11.1853Z" fill="#00B307"/>
<path fill-rule="evenodd" clip-rule="evenodd" d="M58.9849 11.7773C59.3909 12.244 59.8782 13.0067 60.3888 13.0807C60.3423 13.0295 60.2611 12.9669 60.2901 12.927C60.499 13.0864 60.6208 13.0181 60.8761 13.3141C60.9805 13.2344 60.8238 13.0978 60.7078 12.9726C60.383 12.8246 59.2111 12.0676 59.3155 11.7773C59.2053 11.7773 59.0661 11.7147 58.9849 11.7773Z" fill="#00B307"/>
<path fill-rule="evenodd" clip-rule="evenodd" d="M62.3906 10.1722C62.5183 10.4739 63.5161 11.0033 63.5103 11.3505C63.6785 11.4984 63.7771 11.4757 63.9686 11.6977C63.8815 11.7147 63.7829 11.692 63.6959 11.7147C63.8467 11.8172 64.0034 11.9253 64.1542 12.0562C64.2992 12.1929 64.4443 12.3408 64.5951 12.5002C64.8909 12.8133 65.1868 13.1605 65.4827 13.502C66.0802 14.1907 66.6893 14.868 67.281 15.3518C67.3391 15.9438 68.157 16.1032 68.0758 16.5357C68.157 16.3935 68.1106 16.4276 68.2672 16.3878C67.7799 16.0121 67.3274 15.2551 67.3739 14.9591C67.3564 14.9477 67.3565 14.925 67.3971 14.8794C67.3797 14.8965 67.3797 14.9306 67.3739 14.9591C67.4319 14.9989 67.7277 14.9136 67.7335 15.2266C67.9018 15.2608 67.7219 14.9136 67.8844 15.1014C67.9366 15.2892 67.9714 15.4657 67.9888 15.6307C68.1396 15.7958 68.2788 15.9039 68.4181 16.0235C68.3833 16.069 68.2963 16.0975 68.3601 16.1885C68.5341 15.9495 68.7197 16.5357 68.8068 16.6894C68.8416 16.4504 68.4877 16.0235 68.5515 15.7958C68.3659 15.83 68.4239 15.6706 68.215 15.4429C68.2498 15.3974 68.3311 15.3689 68.273 15.2778C68.186 15.2494 68.0874 14.8623 67.8148 14.777C67.9192 14.9534 67.8844 14.9876 67.7625 14.9477C67.5305 14.5208 67.0722 14.185 66.8749 13.6727C66.6371 13.8207 66.4979 13.4735 66.2774 13.1719C66.2136 13.2117 66.1672 13.3198 66.0686 13.2345C65.9468 13.0808 66.0338 13.0068 66.0164 12.893C66.1208 13.0239 66.4747 13.2458 66.318 13.0068C66.2078 13.0922 65.8946 12.4945 65.7843 12.5799C65.9352 12.7279 65.9642 12.8303 65.8772 12.893C65.8075 12.6368 65.6625 12.8133 65.4479 12.5059C65.3318 12.5685 65.2216 12.6596 65.0708 12.6084C65.0882 12.2668 64.6357 12.2953 64.4094 12.0619C64.3108 11.7887 64.2238 11.5554 64.2934 11.3505C64.044 11.174 64.0034 11.0829 63.9047 11.0659C64.044 11.2082 63.9569 11.2878 63.986 11.4017C63.4754 11.0829 63.3536 10.9122 62.9127 10.4511C62.7387 10.4625 62.5531 10.3885 62.3906 10.1722ZM66.2194 13.7524C66.3238 13.8036 66.4399 13.8947 66.5791 14.0712C66.5269 14.3159 66.2252 13.6727 66.173 13.9232C66.1092 13.8321 66.1904 13.798 66.2194 13.7524Z" fill="#00B307"/>
<path fill-rule="evenodd" clip-rule="evenodd" d="M62.0142 14.2647C62.1244 14.4298 62.0896 14.555 62.0838 14.6859C62.223 14.8794 62.2752 14.7428 62.3912 14.868C62.3274 14.925 62.3506 15.0046 62.4086 15.0957C62.5769 14.8111 62.1302 14.5948 62.2056 14.3159C62.1534 14.3672 62.0664 14.2419 62.0142 14.2647Z" fill="#00B307"/>
<path fill-rule="evenodd" clip-rule="evenodd" d="M72.3216 24.1799C72.2868 23.6904 72.6407 24.3222 72.6813 24.0206C72.5188 24.0718 72.368 23.7417 72.2056 23.7189C72.426 24.0035 72.165 23.9352 72.3216 24.1799Z" fill="#00B307"/>
<path fill-rule="evenodd" clip-rule="evenodd" d="M72.4559 25.8476C72.3862 25.8476 72.3224 25.7565 72.2412 25.8362C72.3514 26.0867 72.2702 26.1664 72.2702 26.32C72.3282 26.2802 72.5313 26.7242 72.4733 26.4396C72.2006 26.1265 72.5081 26.0582 72.4559 25.8476Z" fill="#00B307"/>
<path fill-rule="evenodd" clip-rule="evenodd" d="M69.7705 59.2418C69.9387 59.1279 70.1998 59.1564 70.1302 59.1166C70.1998 58.8661 69.8749 59.0255 69.7705 59.2418Z" fill="#00B307"/>
<path fill-rule="evenodd" clip-rule="evenodd" d="M66.6313 63.6245C66.3934 63.9147 66.0917 64.0457 66.1034 64.2904C66.2716 64.188 66.6139 63.8806 66.55 64.1595C66.6081 63.9204 67.2984 63.4765 67.1128 63.5106C66.9213 63.6586 66.4282 64.0229 66.6313 63.6245Z" fill="#00B307"/>
<path fill-rule="evenodd" clip-rule="evenodd" d="M69.9887 67.4039C69.9771 67.5177 69.9771 67.5064 69.9307 67.9048C70.2149 67.5234 70.4644 67.1535 70.3077 66.9713C70.2265 67.1022 69.8959 67.347 69.9887 67.4039Z" fill="#00B307"/>
<path fill-rule="evenodd" clip-rule="evenodd" d="M57.8534 71.9916C57.72 72.094 57.5982 72.0599 57.604 72.1452C57.9404 72.0485 57.3255 72.3957 57.3545 72.4697C57.575 72.4014 58.1029 72.0485 57.9926 72.02C57.6504 72.2363 57.778 72.1168 57.8534 71.9916Z" fill="#00B307"/>
<path fill-rule="evenodd" clip-rule="evenodd" d="M46.7028 76.4597C46.8421 76.4711 47.0683 76.4085 47.1205 76.4995C46.6796 76.6361 45.9371 76.5394 46.1807 76.7443C46.3142 76.5963 46.7667 76.6532 46.8827 76.7101C46.9639 76.5792 47.8283 76.1922 47.5614 76.2775C47.1553 76.4824 46.8363 76.306 46.7028 76.4597Z" fill="#00B307"/>
<path fill-rule="evenodd" clip-rule="evenodd" d="M44.4418 76.5849C44.4476 76.8126 44.088 77.0687 44.4824 77.1655C44.4302 77.0801 44.5869 77.0459 44.6391 76.9833C44.3316 76.9321 44.3722 76.6475 44.9291 76.5621C44.9872 76.38 44.6217 76.5621 44.4418 76.5849Z" fill="#00B307"/>
<path fill-rule="evenodd" clip-rule="evenodd" d="M42.7769 77.0574C42.5854 77.1314 42.9973 77.2167 42.9393 77.3761L42.5564 77.4387L42.51 77.1997C42.2199 77.3989 41.6514 77.433 41.8893 77.5867C41.7326 77.5355 41.489 77.6095 41.4136 77.7062C42.1561 77.6607 42.3418 77.4558 42.9567 77.4672C42.9567 77.4103 42.9625 77.3533 43.1307 77.342C42.8349 77.2623 43.1075 77.046 42.7769 77.0574Z" fill="#00B307"/>
<path fill-rule="evenodd" clip-rule="evenodd" d="M38.6572 79.7894C38.8487 79.852 39.336 79.7496 39.1909 80C39.9219 79.9317 38.8951 79.613 38.6572 79.7894Z" fill="#00B307"/>
<path fill-rule="evenodd" clip-rule="evenodd" d="M34.6372 77.2166C34.7474 77.2451 34.8519 77.2792 34.9215 77.3248C35.9831 77.2849 34.8461 77.2109 34.6372 77.2166Z" fill="#00B307"/>
<path fill-rule="evenodd" clip-rule="evenodd" d="M34.0571 77.433C34.1383 77.581 34.5734 77.6379 34.8228 77.6094C34.7532 77.5013 34.4052 77.4159 34.6372 77.3134C34.1267 77.2565 33.8192 77.3134 33.4886 77.359C33.767 77.5354 33.2043 77.524 33.3783 77.5923C33.506 77.5297 33.8366 77.5468 33.9585 77.6208C34.0803 77.507 33.9121 77.4728 34.0571 77.433Z" fill="#00B307"/>
<path fill-rule="evenodd" clip-rule="evenodd" d="M32.7407 76.9834C32.7465 77.1029 32.5841 77.1314 32.4449 77.1484C32.4275 77.046 32.0272 77.0801 31.9808 76.9891C31.8764 77.0175 31.9344 77.1598 31.6849 77.0972C30.0374 76.8468 28.8075 76.6931 27.6647 76.3686C27.0904 76.2207 26.5277 76.0727 25.9301 75.919C25.6343 75.8393 25.3268 75.7596 25.0077 75.6742C24.6945 75.5661 24.3696 75.458 24.0215 75.3384C23.9635 75.6572 23.7257 75.1904 23.54 75.2758C23.6387 75.5775 23.8591 75.6002 24.2768 75.8336C24.4044 75.7141 24.0679 75.6572 24.0621 75.5547C24.184 75.6003 24.271 75.6002 24.3464 75.6002C24.1608 75.7596 24.7757 75.8905 24.445 75.9418C25.1238 76.1239 25.8895 76.2207 26.7191 76.3971C27.1368 76.4825 27.5661 76.5736 28.0244 76.676C28.2506 76.7272 28.4827 76.7841 28.7263 76.8411C28.97 76.8866 29.2136 76.9321 29.4689 76.9834C29.4747 76.898 29.5617 76.8695 29.6777 76.8695C29.8924 77.0232 29.9214 76.9549 30.339 77.0175C30.2114 77.1427 30.2578 77.1883 30.4957 77.285C30.5189 77.2338 30.4957 77.1484 30.6117 77.1541C31.1048 77.2224 31.7603 77.2509 32.3347 77.2281C32.851 77.2054 33.2977 77.1086 33.5297 77.0175C33.3499 77.0517 32.9612 76.9663 32.7407 76.9834Z" fill="#00B307"/>
<path fill-rule="evenodd" clip-rule="evenodd" d="M20.6045 69.0887C20.9352 69.2139 21.3006 69.4587 20.9236 69.3961C21.1034 69.5327 21.3412 69.6864 21.4863 69.601C21.7241 69.823 21.7531 70.1816 22.1244 70.2669C22.0954 70.3466 22.049 70.3979 21.9678 70.4092C22.2404 70.4946 22.3797 70.4092 22.6059 70.432C22.7509 70.5174 22.5943 70.6312 22.8612 70.7052C22.983 70.6198 23.4239 70.728 23.8358 70.8817C23.8126 70.9044 23.7894 70.9329 23.7836 70.9557C23.7778 71.0183 23.8242 71.0809 23.8416 71.1492C23.8822 71.1093 23.946 71.0695 23.946 71.0296C23.946 70.9955 23.9402 70.9557 23.9228 70.9215C24.3811 71.1093 24.7698 71.3427 24.6073 71.4395C24.8452 71.4964 25.083 71.5874 25.3151 71.6842H25.3093C25.2803 71.6899 25.2513 71.7297 25.2222 71.7525C25.17 71.798 25.1932 71.8664 25.2919 71.8891C25.5065 71.9404 25.7502 71.8777 25.9184 72.077C26.1156 71.9403 26.2839 72.003 26.4869 72.1054C26.6029 72.1623 26.69 72.1054 26.7364 71.9859C26.7538 71.9802 26.7654 71.9802 26.7828 71.9745C26.7712 71.9688 26.7596 71.9631 26.748 71.9574C26.7596 71.9176 26.7596 71.8777 26.7654 71.8265C26.9104 71.855 27.0728 71.8948 27.096 71.8038C26.9916 71.781 26.8756 71.7582 26.7654 71.7354C26.748 71.633 26.7016 71.4907 26.6435 71.5305C26.5623 71.5875 26.4753 71.6216 26.3883 71.6444C26.3071 71.6273 26.2317 71.6102 26.1504 71.5875C25.8314 71.485 25.5007 71.3712 25.1816 71.2516C24.5435 71.0183 23.9286 70.7906 23.4471 70.6198C23.5051 70.58 23.5747 70.5458 23.6617 70.5402C23.9054 70.6142 23.9924 70.8589 24.1432 70.7109C23.8938 70.6255 23.7778 70.5174 23.6153 70.4206C23.4877 70.5288 23.2556 70.4775 23.0294 70.3922C22.8031 70.2954 22.5769 70.1759 22.4261 70.1929C22.5479 70.1816 22.5943 70.0734 22.5189 69.971C22.1882 69.8628 21.7589 69.6181 21.5791 69.379C21.6255 69.3221 21.7415 69.3619 21.7937 69.3164C21.3064 69.1001 21.0976 69.1855 20.6045 69.0887Z" fill="#00B307"/>
<path fill-rule="evenodd" clip-rule="evenodd" d="M22.7754 72.8966C23.2395 72.9478 23.6398 72.9933 24.0807 73.3064C24.1039 73.2438 24.0749 73.1926 24.0401 73.1413C24.1851 73.1926 24.2721 73.1812 24.3243 73.1357C23.7848 73.0161 23.5353 72.8852 23.0074 72.7771C23.576 72.9706 22.9088 72.9023 22.7754 72.8966Z" fill="#00B307"/>
<path fill-rule="evenodd" clip-rule="evenodd" d="M21.9317 72.316C21.7867 72.2534 21.6765 72.1908 21.6185 72.1225C21.4735 72.2135 21.8969 72.5949 21.7925 72.4127C21.5605 72.2761 21.9491 72.3957 21.9317 72.316Z" fill="#00B307"/>
<path fill-rule="evenodd" clip-rule="evenodd" d="M20.0062 72.6063C19.7799 72.8738 20.7719 73.0901 20.8067 73.3463L20.8415 73.2552C20.8938 73.278 20.946 73.295 20.946 73.2495C20.7487 73.13 20.4645 73.0218 20.1164 72.8169C20.1396 72.7429 20.1976 72.6689 20.0062 72.6063Z" fill="#00B307"/>
<path fill-rule="evenodd" clip-rule="evenodd" d="M17.1293 74.7806C17.2222 74.7919 17.5122 74.7123 17.3266 74.6098C17.0887 74.6781 16.9785 74.5074 16.7871 74.5586C16.9379 74.644 17.0017 74.7123 17.0133 74.7862C16.6943 74.7066 16.7117 74.6326 16.3926 74.4504C16.3288 74.5187 16.439 74.5984 16.3926 74.6724C16.1199 74.439 15.8415 74.4732 15.6152 74.3935C15.8821 74.5301 15.8357 74.644 16.1025 74.7862C16.439 74.7521 16.6536 74.957 17.2744 75.179C17.2918 75.0822 17.4426 75.1505 17.5238 75.1334C17.286 75.0139 17.2396 74.8944 17.1293 74.7806Z" fill="#00B307"/>
<path fill-rule="evenodd" clip-rule="evenodd" d="M19.5371 65.7817C19.7344 65.8273 19.8098 66.0663 19.8736 65.9809C19.5777 65.7874 19.746 65.7419 19.7286 65.6167C19.5719 65.6565 19.5429 65.611 19.5371 65.7817Z" fill="#00B307"/>
<path fill-rule="evenodd" clip-rule="evenodd" d="M60.197 7.67351C60.5335 7.94103 60.6901 7.86704 60.9396 7.96949C61.1368 8.16302 61.1484 8.32808 61.2644 8.51022C61.4559 8.57283 61.6589 8.74358 61.8909 8.93711C62.1114 9.14771 62.3608 9.38108 62.6509 9.56322C62.2796 9.27293 62.3028 9.0851 62.2158 8.86881C61.8735 8.73789 61.7459 8.51591 61.4327 8.45329C61.4907 8.38499 61.4327 8.32808 61.305 8.29962C61.392 8.21424 61.4617 8.12317 61.2934 7.99226C61.0382 7.97518 60.6669 7.73043 60.4116 7.70766C60.371 7.59952 60.3652 7.49706 60.284 7.37753C60.2492 7.43445 60.1854 7.44014 60.1216 7.44014C60.2666 7.53691 60.2782 7.6109 60.197 7.67351Z" fill="#00B307"/>
<path fill-rule="evenodd" clip-rule="evenodd" d="M24.6482 76.3743C24.4568 76.2377 24.2305 76.1068 23.9927 75.9873C23.5112 75.7482 22.9543 75.5604 22.4206 75.5433C22.3858 75.9417 21.9913 75.9702 21.4634 75.8677C21.5794 75.6515 20.9877 75.5092 20.9355 75.3099C20.889 75.5205 20.5642 75.2929 20.5758 75.4124C20.5526 75.327 20.4772 75.2416 20.3611 75.1563C20.2973 75.3896 19.7462 75.0424 19.3865 74.9229C19.3227 75.0937 19.4329 75.0937 19.2705 75.1904C19.6302 75.5205 20.5352 75.9645 20.8252 76.141C21.765 76.2093 22.7744 77.285 23.9695 77.5525C24.77 77.7233 25.2922 77.3818 25.1297 76.7329C25.0079 76.6248 24.8455 76.5052 24.6482 76.3743Z" fill="#00B307"/>
</g>
</svg>
